<svg width="327" height="277" viewBox="0 0 327 277" fill="none" xmlns="http://www.w3.org/2000/svg">
<g clip-path="url(#clip0_1509_5597)">
<path d="M304.829 210.858C288.317 236.824 259.304 237.562 233.224 228.821C230.326 227.851 227.471 226.769 224.65 225.61C197.841 213.846 171.855 231.517 148.707 243.367C145.946 244.972 143.082 246.604 140.133 248.132C119.557 258.857 95.4311 264.275 79.3987 244.844C69.5993 232.968 71.9484 217.187 71.897 202.984C71.8369 187.151 66.2128 173.335 57.7508 160.155C46.511 142.63 31.4217 125.998 27.4779 104.91C21.828 74.6938 33.1021 42.3142 64.7981 33.1524C84.92 27.3394 105.436 34.6121 125.352 37.6346C141.642 40.1075 158.206 36.7244 173.407 30.9714C176.184 29.9239 178.954 28.8162 181.723 27.6828C200.147 20.1181 218.357 11.2139 237.75 8.18291C255.06 5.47817 270.784 10.0204 277.385 27.7C283.172 43.1557 279.1 60.4403 281.672 76.4455C283.112 85.2638 286.465 93.3265 290.443 101.149C297.353 114.69 306.132 127.492 310.162 142.244C311.302 146.468 312.279 150.83 313.025 155.287C316.18 174.22 315.177 194.596 304.829 210.858Z" fill="url(#paint0_linear_1509_5597)"/>
<path d="M97.403 271.754C97.403 274.656 76.2008 277 50.0432 277C23.8856 277 2.68349 274.656 2.68349 271.754C2.68349 268.851 23.8856 266.499 50.0432 266.499C76.2008 266.499 97.403 268.851 97.403 271.754Z" fill="url(#paint1_linear_1509_5597)"/>
<path d="M290.7 275.18C307.784 275.18 321.633 273.646 321.633 271.754C321.633 269.862 307.784 268.328 290.7 268.328C273.616 268.328 259.767 269.862 259.767 271.754C259.767 273.646 273.616 275.18 290.7 275.18Z" fill="url(#paint2_linear_1509_5597)"/>
<path d="M267.02 49.0632V75.1661H97.3515V49.0632C97.3515 43.647 99.4992 38.4526 103.322 34.622C107.146 30.7914 112.331 28.6382 117.739 28.6359H246.598C249.279 28.6326 251.934 29.1584 254.411 30.1835C256.889 31.2085 259.14 32.7126 261.037 34.6098C262.934 36.507 264.438 38.76 265.465 41.2401C266.492 43.7201 267.02 46.3785 267.02 49.0632Z" fill="url(#paint3_linear_1509_5597)"/>
<path d="M267.02 49.0632V81.211H226.202V49.0632C226.202 46.3807 226.729 43.7244 227.755 41.246C228.78 38.7677 230.282 36.5158 232.176 34.6189C234.07 32.7221 236.318 31.2174 238.793 30.1909C241.267 29.1643 243.92 28.6359 246.598 28.6359C249.279 28.6326 251.934 29.1584 254.411 30.1835C256.889 31.2085 259.14 32.7126 261.037 34.6098C262.934 36.507 264.438 38.76 265.465 41.2401C266.492 43.7201 267.02 46.3785 267.02 49.0632Z" fill="white"/>
<path d="M266.523 49.0031V82.6277H226.665V49.0031C226.665 43.7084 228.765 38.6306 232.503 34.8867C236.241 31.1428 241.312 29.0395 246.598 29.0395C249.215 29.0395 251.807 29.5559 254.225 30.5593C256.643 31.5627 258.84 33.0333 260.69 34.8872C262.54 36.7411 264.008 38.9419 265.009 41.364C266.009 43.786 266.524 46.3818 266.523 49.0031Z" fill="url(#paint4_linear_1509_5597)"/>
<path d="M226.665 49.8445H97.8059V215.083H226.665V49.8445Z" fill="white"/>
<path d="M226.211 49.8445H97.3515V215.083H226.211V49.8445Z" fill="white"/>
<path d="M209.175 61.5222H165.33V63.7461H209.175V61.5222Z" fill="#DAEBFE"/>
<path d="M209.175 68.5631H165.33V70.787H209.175V68.5631Z" fill="#DAEBFE"/>
<path d="M209.175 159.666H165.33V164.757H209.175V159.666Z" fill="#DAEBFE"/>
<path d="M209.184 170.047H180.505V175.139H209.184V170.047Z" fill="#DAEBFE"/>
<path d="M209.175 150.839H111.369V151.646H209.175V150.839Z" fill="url(#paint5_linear_1509_5597)"/>
<path d="M209.175 86.9467H111.369V87.7539H209.175V86.9467Z" fill="url(#paint6_linear_1509_5597)"/>
<path d="M209.081 76.9349H111.309V79.1588H209.081V76.9349Z" fill="#DAEBFE"/>
<path d="M178.148 96.409H111.309V102.772H178.148V96.409Z" fill="#DAEBFE"/>
<path d="M208.995 96.409H181.783V102.772H208.995V96.409Z" fill="#DAEBFE"/>
<path d="M178.148 115.806H111.309V122.169H178.148V115.806Z" fill="#DAEBFE"/>
<path d="M208.995 115.806H181.783V122.169H208.995V115.806Z" fill="#DAEBFE"/>
<path d="M178.148 135.203H111.309V141.565H178.148V135.203Z" fill="#DAEBFE"/>
<path d="M208.995 135.203H181.783V141.565H208.995V135.203Z" fill="#DAEBFE"/>
<path d="M250.919 183.339H168.477C166.971 183.339 165.751 184.561 165.751 186.069V230.702C165.751 232.21 166.971 233.432 168.477 233.432H250.919C252.425 233.432 253.646 232.21 253.646 230.702V186.069C253.646 184.561 252.425 183.339 250.919 183.339Z" fill="url(#paint7_linear_1509_5597)"/>
<g style="mix-blend-mode:multiply">
<path d="M253.646 190.268H165.751V199.773H253.646V190.268Z" fill="#DBE7EE"/>
</g>
<path d="M240.854 227.147C245.347 227.147 248.99 223.499 248.99 218.998C248.99 214.498 245.347 210.85 240.854 210.85C236.36 210.85 232.718 214.498 232.718 218.998C232.718 223.499 236.36 227.147 240.854 227.147Z" fill="url(#paint8_linear_1509_5597)"/>
<path d="M187.004 204.436H170.346V207.776H187.004V204.436Z" fill="url(#paint9_linear_1509_5597)"/>
<path d="M207.683 204.436H191.025V207.776H207.683V204.436Z" fill="url(#paint10_linear_1509_5597)"/>
<path d="M228.362 204.436H211.704V207.776H228.362V204.436Z" fill="url(#paint11_linear_1509_5597)"/>
<path d="M249.042 204.436H232.383V207.776H249.042V204.436Z" fill="url(#paint12_linear_1509_5597)"/>
<path style="mix-blend-mode:screen" d="M187.004 216.628H170.346V221.703H187.004V216.628Z" fill="url(#paint13_linear_1509_5597)"/>
<path style="mix-blend-mode:screen" d="M207.863 216.628H191.205V221.703H207.863V216.628Z" fill="url(#paint14_linear_1509_5597)"/>
<path style="mix-blend-mode:screen" d="M228.723 216.628H212.064V221.703H228.723V216.628Z" fill="url(#paint15_linear_1509_5597)"/>
<path d="M50.2233 151.938C39.5836 152.341 44.9249 162.242 46.9996 170.923C50.772 184.592 48.8429 202.375 54.3728 204.264C69.1191 208.617 63.9236 156.308 59.8169 153.947C57.8879 152.874 53.7898 152.264 50.2233 151.938Z" fill="#EDB39F"/>
<path d="M60.2714 199.662C49.8889 192.329 51.1492 241.838 54.0299 255.731C56.9106 269.624 59.7398 260.153 61.5831 237.906C63.4264 215.658 64.3609 202.547 60.2714 199.662Z" fill="#EDB39F"/>
<path d="M52.4438 254.349L52.1609 259.544L60.6572 259.75L60.4085 254.718L52.4438 254.349Z" fill="#EDB39F"/>
<path d="M60.8372 259.681C60.8372 259.681 62.4576 262.798 67.7989 266.877C73.1401 270.955 74.5462 270.071 74.6576 271.591C74.7691 273.11 51.295 271.788 51.295 271.788L52.0237 259.312C52.0237 259.312 60.8372 259.32 60.8372 259.681Z" fill="url(#paint16_linear_1509_5597)"/>
<path d="M38.8635 152.195C28.421 150.109 28.5753 161.374 28.5753 170.321C29.0726 184.498 25.849 200.924 30.7873 204.058C44.119 211.717 47.9342 157.948 44.5048 154.703C42.7987 153.209 42.2585 153.346 38.8635 152.195Z" fill="#EDB39F"/>
<path d="M36.2743 199.662C25.8918 192.329 27.1521 241.838 30.0242 255.731C32.8963 269.624 35.7427 260.153 37.5774 237.906C39.4122 215.658 40.3638 202.547 36.2743 199.662Z" fill="#EDB39F"/>
<path d="M28.7382 255.912L28.7125 261.003L36.8658 261.072L36.7458 256.066L28.7382 255.912Z" fill="#EDB39F"/>
<path d="M28.6782 260.935C28.5753 262.953 26.4834 269.83 26.4319 271.573C39.3864 271.9 39.0263 274.51 36.9344 260.978L28.6782 260.935Z" fill="url(#paint17_linear_1509_5597)"/>
<path d="M30.3929 152.59C30.3929 152.59 26.9635 158.489 27.2979 177.44C27.6408 199.112 27.4436 204.195 27.4436 205.775C27.4436 207.355 27.5636 256.865 27.5636 256.865C27.5636 256.865 35.657 258.53 37.6117 256.865C38.632 256.006 46.3652 178.049 46.3652 178.049C46.3652 178.049 48.0799 196.519 48.6372 203.517C49.0916 209.587 49.2202 251.258 51.3978 255.517C53.6612 257.346 61.8489 256.375 61.9603 256.281C63.1692 254.993 66.3842 169.368 62.4662 153.732L30.3929 152.59Z" fill="url(#paint18_linear_1509_5597)"/>
<path d="M55.1187 105.537C49.3059 109.34 57.1849 144.459 61.686 142.57C69.5821 143.102 65.6726 101.312 55.1187 105.537Z" fill="#EDB39F"/>
<path d="M48.3971 100.067C64.6267 101.939 64.3266 116.192 65.7412 126.342L54.3985 127.999L48.3971 100.067Z" fill="url(#paint19_linear_1509_5597)"/>
<path d="M62.0632 143.334C68.862 142.106 84.5514 113.986 82.991 112.354C81.765 109.246 48.6543 143.429 62.0632 143.334Z" fill="#EDB39F"/>
<path d="M38.2633 98.942C16.5553 101.93 31.8932 114.398 29.6899 153.037C29.6899 155.793 62.9291 156.789 62.7405 153.896C58.831 123.474 69.1106 103.381 48.38 99.8694" fill="url(#paint20_linear_1509_5597)"/>
<path d="M48.3971 97.0444V102.789C47.9856 108.078 39.6522 102.454 38.7091 100.299C38.0575 98.9077 39.0006 98.1864 39.0006 95.2413V91.9698C28.9697 76.351 45.3707 69.7995 51.7836 80.8847C51.8951 89.9778 54.3385 98.5299 48.3971 97.0444Z" fill="#EDB39F"/>
<path d="M38.9663 91.9698C39.1978 91.9097 37.6032 86.2856 38.8549 86.2255C39.8323 86.1739 40.2695 87.7796 40.4495 89.2994C40.9554 89.1535 41.5727 89.0075 41.847 88.9388C37.3031 72.135 55.3759 90.9051 52.9925 76.3853C49.5203 72.9078 46.3738 74.5478 41.3926 74.8312C32.1076 74.5908 35.8199 90.201 38.9663 91.9698Z" fill="url(#paint21_linear_1509_5597)"/>
<path d="M27.5979 105.622C21.1764 107.709 18.9388 144.322 23.637 143.703C30.9244 146.219 38.5891 104.352 27.5979 105.622Z" fill="#EDB39F"/>
<path d="M22.7454 143.403C23.1502 143.851 23.6636 144.186 24.2358 144.377C24.808 144.568 25.4197 144.608 26.0119 144.493C35.3912 142.905 63.8293 120.005 61.4374 118.682C60.2285 117.145 16.804 136.422 22.7454 143.403Z" fill="#EDB39F"/>
<path d="M38.4691 98.942C38.4691 98.942 26.8178 99.5431 24.5458 103.313C22.2738 107.082 20.3277 123.62 20.3277 123.62L32.9649 124.873L34.1909 117.506" fill="url(#paint22_linear_1509_5597)"/>
<path d="M77.967 100.788L65.1668 121.877L77.4954 123.422L90.1841 101.87L77.967 100.788Z" fill="url(#paint23_linear_1509_5597)"/>
<path d="M84.4056 112.852C84.422 112.555 84.3276 112.262 84.1407 112.03C83.9538 111.799 83.6877 111.645 83.394 111.599C81.5164 111.281 77.684 110.929 76.9639 113.11C75.9951 116.003 79.5959 119.077 81.4135 117.772C82.6909 116.871 84.3113 114.441 84.4056 112.852Z" fill="#EDB39F"/>
<path d="M62.4061 115.634C62.7491 116.999 64.5066 117.91 63.1092 120.511C61.7117 123.113 56.9791 123.8 56.9791 123.8L54.9472 120.211C55.3201 119.686 55.6093 119.107 55.8046 118.493C56.0457 117.608 56.4714 116.784 57.0537 116.075C57.6359 115.366 58.3614 114.788 59.1825 114.381C61.5316 113.299 65.2268 112.165 65.6898 112.852C66.1527 113.539 62.1146 114.569 62.4061 115.634Z" fill="#EDB39F"/>
<path d="M54.9472 120.211L29.0983 132.009L29.1583 138.483L56.1561 122.177L54.9472 120.211Z" fill="#EDB39F"/>
<path d="M150.756 10.6301H60.5114C59.6023 10.6301 58.8653 11.3682 58.8653 12.2787V44.9245C58.8653 45.835 59.6023 46.5731 60.5114 46.5731H150.756C151.665 46.5731 152.402 45.835 152.402 44.9245V12.2787C152.402 11.3682 151.665 10.6301 150.756 10.6301Z" fill="url(#paint24_linear_1509_5597)"/>
<path d="M136.001 19.3282H127.59C127.269 19.3282 126.962 19.4557 126.735 19.6828C126.509 19.9098 126.381 20.2178 126.381 20.5389V36.6643C126.38 36.824 126.411 36.9824 126.471 37.1302C126.531 37.2781 126.62 37.4126 126.732 37.5259C126.845 37.6393 126.978 37.7292 127.126 37.7906C127.273 37.852 127.431 37.8836 127.59 37.8836H139.936C140.259 37.8836 140.568 37.7551 140.797 37.5265C141.025 37.2978 141.153 36.9877 141.153 36.6643V24.4887L136.001 19.3282ZM138.727 33.0666C138.727 33.1121 138.709 33.1558 138.677 33.188C138.645 33.2202 138.601 33.2383 138.556 33.2383H128.988C128.941 33.2383 128.897 33.2205 128.863 33.1885C128.83 33.1566 128.81 33.1129 128.808 33.0666V33.0065C128.81 32.9601 128.83 32.9164 128.863 32.8845C128.897 32.8525 128.941 32.8347 128.988 32.8347H138.573C138.595 32.8347 138.617 32.8392 138.638 32.8478C138.659 32.8564 138.678 32.8691 138.694 32.885C138.71 32.901 138.722 32.9199 138.731 32.9407C138.74 32.9616 138.744 32.9839 138.744 33.0065L138.727 33.0666ZM138.727 30.4391C138.727 30.4855 138.709 30.5301 138.677 30.5637C138.645 30.5972 138.602 30.6172 138.556 30.6194H128.988C128.941 30.6173 128.896 30.5976 128.863 30.5643C128.829 30.5309 128.81 30.4862 128.808 30.4391V30.4219C128.808 30.3986 128.812 30.3756 128.821 30.3542C128.831 30.3327 128.844 30.3134 128.861 30.2973C128.878 30.2813 128.898 30.2688 128.919 30.2607C128.941 30.2526 128.964 30.249 128.988 30.2502H138.573C138.596 30.249 138.618 30.2525 138.64 30.2607C138.661 30.2689 138.681 30.2815 138.697 30.2977C138.713 30.3139 138.725 30.3334 138.734 30.3548C138.742 30.3762 138.745 30.399 138.744 30.4219L138.727 30.4391ZM138.727 27.8116C138.728 27.8345 138.725 27.8574 138.716 27.8788C138.708 27.9002 138.696 27.9196 138.68 27.9358C138.663 27.952 138.644 27.9646 138.623 27.9728C138.601 27.981 138.578 27.9846 138.556 27.9834H128.988C128.964 27.9845 128.941 27.9809 128.919 27.9728C128.898 27.9647 128.878 27.9523 128.861 27.9362C128.844 27.9201 128.831 27.9008 128.821 27.8794C128.812 27.858 128.808 27.8349 128.808 27.8116V27.846C128.81 27.7988 128.829 27.7542 128.863 27.7208C128.896 27.6874 128.941 27.6678 128.988 27.6657H138.573C138.619 27.6679 138.663 27.6878 138.694 27.7214C138.726 27.755 138.744 27.7996 138.744 27.846L138.727 27.8116ZM138.727 25.1928C138.727 25.2383 138.709 25.282 138.677 25.3142C138.645 25.3464 138.601 25.3645 138.556 25.3645H128.988C128.941 25.3645 128.897 25.3467 128.863 25.3147C128.83 25.2828 128.81 25.2391 128.808 25.1928V25.1326C128.81 25.0863 128.83 25.0426 128.863 25.0107C128.897 24.9787 128.941 24.9609 128.988 24.9609H138.573C138.618 24.9609 138.662 24.979 138.694 25.0112C138.726 25.0434 138.744 25.0871 138.744 25.1326L138.727 25.1928Z" fill="url(#paint25_linear_1509_5597)"/>
<path d="M136.001 24.4887H141.153L136.001 19.3282V24.4887Z" fill="#C7E6F9"/>
<path d="M121.366 35.3162H68.5962C68.5098 35.3162 68.4269 35.2818 68.3658 35.2206C68.3047 35.1594 68.2704 35.0765 68.2704 34.9899C68.2726 34.9049 68.3079 34.8241 68.3688 34.7647C68.4296 34.7054 68.5112 34.6722 68.5962 34.6722H121.366C121.451 34.6722 121.532 34.7054 121.593 34.7647C121.654 34.8241 121.689 34.9049 121.692 34.9899C121.692 35.0765 121.657 35.1594 121.596 35.2206C121.535 35.2818 121.452 35.3162 121.366 35.3162Z" fill="white"/>
<path d="M288.094 226.331C287.931 226.666 287.734 226.855 287.536 226.872H287.339C281.475 226.743 271.153 196.476 256.278 198.21C256.115 198.21 255.96 198.21 255.798 198.262C255.798 198.262 269.935 191.522 277.06 195.214C288.119 200.958 289.851 222.656 288.094 226.331Z" fill="url(#paint26_linear_1509_5597)"/>
<path d="M288.094 226.331C287.931 226.666 287.734 226.855 287.536 226.872H287.339C281.475 226.743 271.153 196.476 256.278 198.21C256.278 198.21 272.679 191.693 280.395 205.028C284.187 211.623 286.793 218.833 288.094 226.331Z" fill="#73A2FD"/>
<path d="M288.454 245.17C288.36 245.163 288.272 245.12 288.21 245.049C288.147 244.979 288.115 244.886 288.119 244.792C288.119 244.311 290.897 200.563 267.2 197.3C267.106 197.287 267.021 197.238 266.963 197.162C266.905 197.087 266.879 196.991 266.892 196.897C266.897 196.849 266.912 196.802 266.935 196.76C266.959 196.718 266.992 196.681 267.03 196.652C267.069 196.623 267.113 196.603 267.16 196.592C267.207 196.58 267.256 196.579 267.303 196.588C291.652 199.936 288.874 244.354 288.84 244.835C288.836 244.882 288.824 244.929 288.803 244.971C288.781 245.014 288.752 245.052 288.716 245.083C288.68 245.114 288.639 245.138 288.594 245.153C288.549 245.167 288.501 245.173 288.454 245.17Z" fill="#73A2FD"/>
<path d="M327.034 208.617H326.983C311.954 206.333 301.52 236.832 295.595 237.227C295.508 237.245 295.417 237.245 295.33 237.227C295.271 237.222 295.214 237.205 295.163 237.177C295.111 237.149 295.066 237.111 295.03 237.064C292.886 234.9 294.275 211.571 305.815 205.595C312.691 202.006 326.237 208.248 327.034 208.617Z" fill="url(#paint27_linear_1509_5597)"/>
<path d="M326.949 208.609C311.919 206.325 301.485 236.824 295.561 237.219C295.473 237.236 295.383 237.236 295.295 237.219C295.237 237.214 295.18 237.196 295.128 237.168C295.077 237.14 295.032 237.102 294.995 237.056C296.007 231.775 297.876 221.042 304.092 213.4C312.459 203.113 325.971 208.265 326.949 208.609Z" fill="#73A2FD"/>
<path d="M294.387 255.525C294.295 255.525 294.207 255.491 294.141 255.429C294.074 255.367 294.033 255.281 294.027 255.19C294.027 254.709 291.214 210.292 315.572 206.943C315.62 206.932 315.671 206.932 315.719 206.942C315.768 206.952 315.814 206.972 315.855 207C315.896 207.029 315.93 207.066 315.956 207.108C315.981 207.151 315.998 207.199 316.005 207.248C316.011 207.297 316.007 207.348 315.994 207.395C315.98 207.443 315.956 207.488 315.924 207.526C315.893 207.564 315.853 207.596 315.809 207.618C315.764 207.64 315.716 207.653 315.666 207.656C291.977 210.918 294.721 254.667 294.747 255.147C294.75 255.194 294.744 255.241 294.729 255.286C294.714 255.331 294.69 255.372 294.659 255.407C294.628 255.442 294.59 255.471 294.548 255.491C294.505 255.511 294.459 255.523 294.412 255.525H294.387Z" fill="#73A2FD"/>
<path d="M289.414 206.514V206.556C289.421 206.602 289.421 206.648 289.414 206.694L289.225 206.539C288.017 205.466 281.158 198.811 277.866 183.519C273.279 162.327 265.1 157.468 264.585 157.184L264.114 156.944L264.585 156.849C276.014 154.737 284.673 160.284 287.965 173.584C291.566 188.327 289.663 204.633 289.414 206.514Z" fill="url(#paint28_linear_1509_5597)"/>
<path d="M289.2 206.539C287.991 205.466 281.132 198.811 277.84 183.519C273.253 162.327 265.074 157.468 264.56 157.184C265.323 157.313 280.498 160.353 284.63 177.86C286.879 187.29 288.406 196.877 289.2 206.539Z" fill="#73A2FD"/>
<path d="M290.957 253.353C290.91 253.353 290.863 253.343 290.819 253.325C290.776 253.307 290.736 253.281 290.703 253.247C290.669 253.214 290.643 253.174 290.625 253.13C290.606 253.086 290.597 253.039 290.597 252.992V252.735C290.863 243.942 292.646 170.021 272.01 160.936C271.967 160.918 271.928 160.891 271.895 160.857C271.862 160.823 271.837 160.783 271.82 160.738C271.803 160.694 271.795 160.647 271.797 160.6C271.799 160.553 271.81 160.507 271.83 160.464C271.848 160.42 271.874 160.38 271.908 160.347C271.941 160.313 271.981 160.287 272.025 160.269C272.069 160.251 272.117 160.243 272.164 160.244C272.211 160.245 272.258 160.256 272.301 160.275C292.938 169.351 291.763 238.335 291.317 252.752V252.992C291.317 253.039 291.308 253.086 291.29 253.13C291.272 253.174 291.245 253.214 291.212 253.247C291.178 253.281 291.139 253.307 291.095 253.325C291.051 253.343 291.004 253.353 290.957 253.353Z" fill="#73A2FD"/>
<path d="M319.087 166.947L318.984 166.999L318.589 167.187C318.589 167.187 310.016 171.652 305.309 193.548C301.76 209.982 294.164 216.414 293.761 216.731C293.725 216.559 293.702 216.384 293.692 216.208C293.323 213.151 291.746 197.704 295.218 183.648C298.553 170.201 307.384 164.663 319.01 166.999L319.087 166.947Z" fill="url(#paint29_linear_1509_5597)"/>
<path d="M319.01 166.947C319.014 166.964 319.014 166.982 319.01 166.999L318.615 167.187C318.615 167.187 310.042 171.652 305.335 193.548C301.786 209.982 294.189 216.414 293.786 216.731C293.751 216.559 293.728 216.384 293.718 216.208C296.11 194.845 299.908 184.257 303.329 177.697C307.538 169.523 319.01 166.947 319.01 166.947Z" fill="#73A2FD"/>
<path d="M292.02 254.211C291.925 254.211 291.833 254.173 291.766 254.106C291.698 254.038 291.66 253.946 291.66 253.851C291.514 230.289 293.092 178.066 310.83 170.261C310.918 170.223 311.017 170.22 311.107 170.255C311.196 170.29 311.268 170.358 311.306 170.446C311.345 170.534 311.347 170.633 311.313 170.722C311.278 170.812 311.21 170.884 311.122 170.923C293.769 178.556 292.26 230.435 292.38 253.842C292.383 253.89 292.375 253.937 292.359 253.982C292.342 254.027 292.317 254.068 292.284 254.102C292.251 254.137 292.211 254.164 292.167 254.183C292.124 254.202 292.077 254.211 292.029 254.211H292.02Z" fill="#73A2FD"/>
<path d="M277.891 244.389L278.114 246.964L280.12 269.59C280.165 270.182 280.429 270.735 280.861 271.142C281.292 271.549 281.86 271.779 282.452 271.788L301.64 271.96C302.237 271.967 302.815 271.749 303.259 271.35C303.704 270.951 303.982 270.4 304.04 269.805L306.192 249.463V249.42L306.698 244.638L277.891 244.389Z" fill="url(#paint30_linear_1509_5597)"/>
<g style="mix-blend-mode:multiply">
<path d="M278.114 246.973L280.12 269.598C280.167 270.189 280.432 270.74 280.863 271.145C281.295 271.55 281.861 271.779 282.452 271.788L291.583 271.874C283.293 268.56 281.295 261.184 282.95 255.56C284.784 249.437 304.135 249.472 306.192 249.489H306.372L306.192 249.446L287.845 245.582L278.114 246.973Z" fill="#DBE7EE"/>
</g>
<path d="M277.028 249.293L307.48 249.559C308.001 249.563 308.427 249.144 308.431 248.623L308.458 245.617C308.462 245.096 308.044 244.669 307.523 244.665L277.071 244.399C276.55 244.394 276.124 244.813 276.12 245.335L276.094 248.34C276.089 248.862 276.508 249.288 277.028 249.293Z" fill="url(#paint31_linear_1509_5597)"/>
<path d="M269.455 133.159V131.227C268.876 131.244 268.3 131.134 267.767 130.906C267.234 130.677 266.757 130.336 266.369 129.905C265.603 128.805 265.22 127.483 265.28 126.144L268.315 125.68C268.281 126.43 268.404 127.179 268.675 127.878C268.759 128.082 268.902 128.255 269.085 128.376C269.269 128.497 269.484 128.56 269.704 128.557C270.275 128.557 270.575 128.17 270.604 127.398C270.608 126.985 270.529 126.577 270.372 126.196C270.233 125.859 270.042 125.546 269.806 125.268C269.512 124.939 269.194 124.632 268.855 124.349L267.432 123.156C267.127 122.89 266.84 122.603 266.574 122.297C266.328 122.032 266.107 121.745 265.914 121.439C265.691 121.094 265.528 120.714 265.434 120.314C265.327 119.867 265.275 119.408 265.28 118.949C265.25 118.411 265.329 117.874 265.512 117.367C265.694 116.861 265.977 116.397 266.343 116.003C267.132 115.244 268.172 114.801 269.266 114.758V112.929H270.278V114.75C270.669 114.771 271.056 114.846 271.427 114.973C271.733 115.079 272.022 115.229 272.284 115.42C272.523 115.599 272.732 115.817 272.901 116.064C273.069 116.299 273.21 116.553 273.322 116.819C273.432 117.097 273.516 117.384 273.57 117.678C273.637 117.96 273.683 118.247 273.707 118.536C273.707 118.777 273.75 119.052 273.759 119.344L270.698 119.747C270.698 119.472 270.698 119.249 270.698 119.069C270.698 118.888 270.698 118.708 270.647 118.502C270.631 118.338 270.593 118.176 270.535 118.021C270.493 117.898 270.432 117.783 270.355 117.678C270.29 117.574 270.194 117.493 270.081 117.446C269.951 117.402 269.815 117.381 269.678 117.386C269.536 117.387 269.397 117.424 269.272 117.493C269.148 117.562 269.043 117.661 268.966 117.781C268.802 118.037 268.716 118.335 268.718 118.639C268.711 118.93 268.748 119.219 268.829 119.498C268.915 119.759 269.046 120.003 269.215 120.219C269.404 120.451 269.549 120.623 269.669 120.743L270.244 121.284L271.607 122.486C271.951 122.785 272.274 123.106 272.576 123.448C272.864 123.775 273.125 124.125 273.356 124.495C273.59 124.879 273.766 125.296 273.879 125.732C274.009 126.222 274.072 126.727 274.068 127.235C274.101 128.245 273.74 129.229 273.061 129.977C272.383 130.726 271.44 131.18 270.432 131.244V133.194L269.455 133.159Z" fill="white"/>
<path d="M269.686 139.951C266.346 139.953 263.079 138.962 260.301 137.105C257.522 135.247 255.356 132.606 254.076 129.515C252.797 126.424 252.461 123.023 253.112 119.741C253.762 116.459 255.37 113.444 257.732 111.078C260.094 108.711 263.103 107.099 266.38 106.446C269.656 105.793 273.053 106.127 276.139 107.407C279.226 108.687 281.864 110.855 283.721 113.637C285.577 116.419 286.568 119.69 286.568 123.036C286.561 127.518 284.78 131.816 281.616 134.986C278.452 138.157 274.162 139.942 269.686 139.951ZM269.686 106.928C266.503 106.926 263.391 107.87 260.743 109.64C258.095 111.41 256.031 113.927 254.812 116.873C253.593 119.818 253.274 123.059 253.894 126.186C254.515 129.314 256.048 132.186 258.299 134.441C260.55 136.695 263.418 138.23 266.541 138.852C269.663 139.474 272.899 139.154 275.84 137.933C278.781 136.712 281.294 134.645 283.062 131.993C284.829 129.341 285.772 126.224 285.77 123.036C285.764 118.766 284.067 114.672 281.052 111.653C278.037 108.634 273.95 106.934 269.686 106.928Z" fill="white"/>
<path d="M174.675 12.2959V11.4372C174.412 11.4436 174.15 11.3932 173.907 11.2895C173.665 11.1859 173.447 11.0313 173.269 10.8362C172.92 10.3338 172.745 9.73042 172.772 9.11886L174.153 8.9042C174.136 9.24478 174.195 9.58481 174.324 9.90023C174.362 9.99211 174.426 10.0706 174.508 10.1257C174.591 10.1808 174.688 10.2099 174.787 10.2093C175.061 10.2093 175.198 10.0376 175.198 9.68556C175.2 9.49744 175.165 9.3108 175.096 9.13603C175.026 8.98446 174.937 8.84294 174.83 8.71529C174.699 8.56553 174.556 8.42761 174.401 8.30314L173.758 7.73644C173.617 7.62393 173.485 7.50048 173.364 7.36722C173.254 7.24366 173.153 7.11159 173.064 6.97224C172.965 6.81336 172.892 6.63933 172.849 6.45704C172.799 6.25492 172.776 6.04703 172.781 5.83882C172.766 5.59461 172.801 5.34991 172.883 5.11963C172.966 4.88935 173.094 4.6783 173.261 4.49933C173.617 4.14962 174.091 3.94725 174.59 3.93262V3.07397H175.053V3.93262C175.231 3.94012 175.406 3.9719 175.576 4.02707C175.715 4.07995 175.847 4.14912 175.97 4.23315C176.077 4.3174 176.172 4.41558 176.253 4.52509C176.327 4.63302 176.39 4.74808 176.442 4.86855C176.49 4.99086 176.527 5.11731 176.553 5.24635C176.584 5.37038 176.604 5.49676 176.613 5.62416C176.623 5.74705 176.623 5.87049 176.613 5.99338L175.224 6.1737C175.224 6.05349 175.224 5.95045 175.224 5.87317C175.233 5.78751 175.233 5.70123 175.224 5.61557C175.232 5.54138 175.232 5.46652 175.224 5.39232C175.203 5.33719 175.174 5.28521 175.138 5.23777C175.109 5.18979 175.063 5.15345 175.01 5.13473C174.951 5.11681 174.888 5.11681 174.83 5.13473C174.765 5.1331 174.702 5.14802 174.645 5.17809C174.588 5.20815 174.539 5.25235 174.504 5.30646C174.432 5.42582 174.394 5.56218 174.393 5.70144C174.392 5.82918 174.409 5.95641 174.444 6.07924C174.482 6.19882 174.543 6.3097 174.624 6.40553L174.83 6.64595L175.087 6.88637L175.713 7.43591C175.867 7.57313 176.013 7.71935 176.15 7.87382C176.281 8.02067 176.398 8.1787 176.502 8.34608C176.615 8.53042 176.701 8.72989 176.759 8.93854C176.814 9.16044 176.843 9.38815 176.845 9.61687C176.859 10.077 176.694 10.5247 176.386 10.8659C176.077 11.207 175.648 11.4149 175.19 11.4458V12.3044L174.675 12.2959Z" fill="url(#paint32_linear_1509_5597)"/>
<path d="M174.778 15.387C173.252 15.387 171.76 14.9338 170.492 14.0846C169.223 13.2355 168.234 12.0285 167.65 10.6165C167.066 9.20438 166.913 7.65057 167.211 6.15152C167.508 4.65246 168.243 3.27549 169.322 2.19474C170.401 1.11398 171.776 0.377976 173.273 0.0797962C174.77 -0.218384 176.321 -0.0653455 177.731 0.519556C179.141 1.10446 180.346 2.09495 181.194 3.36579C182.042 4.63662 182.494 6.13072 182.494 7.65914C182.494 9.70869 181.682 11.6743 180.234 13.1235C178.787 14.5728 176.825 15.387 174.778 15.387ZM174.778 0.369218C173.33 0.36752 171.913 0.796357 170.707 1.60145C169.502 2.40654 168.562 3.55169 168.007 4.89194C167.452 6.2322 167.306 7.7073 167.588 9.13054C167.871 10.5538 168.568 11.8612 169.593 12.8872C170.617 13.9132 171.922 14.6118 173.344 14.8944C174.765 15.1771 176.237 15.0312 177.576 14.4751C178.914 13.919 180.057 12.9778 180.861 11.7706C181.665 10.5634 182.093 9.14452 182.092 7.69349C182.089 5.75167 181.318 3.89003 179.947 2.51696C178.576 1.14388 176.717 0.37149 174.778 0.369218Z" fill="url(#paint33_linear_1509_5597)"/>
<path d="M112.089 237.047V236.188C111.826 236.195 111.564 236.144 111.321 236.041C111.079 235.937 110.861 235.782 110.683 235.587C110.334 235.085 110.159 234.482 110.186 233.87L111.566 233.655C111.554 233.996 111.613 234.335 111.738 234.651C111.775 234.743 111.84 234.822 111.922 234.877C112.005 234.932 112.102 234.961 112.201 234.961C112.475 234.961 112.612 234.789 112.612 234.437C112.614 234.249 112.579 234.062 112.509 233.887C112.443 233.734 112.354 233.592 112.244 233.467C112.113 233.317 111.97 233.179 111.815 233.054L111.172 232.496C111.018 232.359 110.889 232.23 110.786 232.118C110.673 231.995 110.57 231.863 110.477 231.723C110.378 231.565 110.306 231.391 110.263 231.208C110.217 231.005 110.194 230.798 110.195 230.59C110.182 230.346 110.217 230.102 110.3 229.872C110.382 229.642 110.51 229.431 110.675 229.251C111.036 228.909 111.507 228.708 112.004 228.684V227.825H112.467V228.684C112.644 228.691 112.82 228.723 112.99 228.778C113.129 228.83 113.262 228.899 113.384 228.984C113.491 229.069 113.586 229.167 113.667 229.276C113.741 229.384 113.804 229.499 113.855 229.62C113.904 229.742 113.941 229.869 113.967 229.998C113.967 230.135 114.018 230.264 114.035 230.375C114.053 230.487 114.035 230.616 114.035 230.745L112.647 230.925C112.647 230.805 112.647 230.702 112.647 230.624C112.647 230.547 112.647 230.453 112.647 230.367C112.633 230.292 112.616 230.217 112.595 230.144C112.577 230.087 112.548 230.034 112.509 229.989C112.497 229.965 112.48 229.943 112.46 229.925C112.439 229.908 112.415 229.894 112.389 229.886C112.328 229.868 112.262 229.868 112.201 229.886C112.137 229.884 112.075 229.899 112.019 229.929C111.963 229.959 111.917 230.004 111.884 230.058C111.805 230.175 111.764 230.312 111.764 230.453C111.762 230.58 111.779 230.708 111.815 230.83C111.853 230.95 111.914 231.061 111.995 231.157L112.201 231.397L112.467 231.638L113.084 232.187C113.238 232.324 113.384 232.471 113.521 232.625C113.654 232.773 113.771 232.934 113.873 233.106C113.987 233.286 114.074 233.483 114.13 233.69C114.186 233.914 114.214 234.145 114.216 234.377C114.228 234.835 114.062 235.281 113.754 235.62C113.445 235.959 113.018 236.166 112.561 236.197V237.056L112.089 237.047Z" fill="white"/>
<path d="M112.192 240.138C110.666 240.138 109.174 239.685 107.905 238.836C106.636 237.987 105.647 236.78 105.063 235.368C104.479 233.956 104.327 232.402 104.624 230.903C104.922 229.404 105.657 228.027 106.736 226.946C107.815 225.865 109.19 225.129 110.687 224.831C112.184 224.533 113.735 224.686 115.145 225.271C116.555 225.856 117.76 226.846 118.608 228.117C119.456 229.388 119.908 230.882 119.908 232.41C119.908 234.46 119.095 236.426 117.648 237.875C116.201 239.324 114.239 240.138 112.192 240.138ZM112.192 225.12C110.744 225.12 109.328 225.551 108.124 226.357C106.919 227.163 105.981 228.309 105.427 229.649C104.873 230.99 104.729 232.464 105.012 233.887C105.295 235.31 105.993 236.616 107.018 237.641C108.043 238.667 109.348 239.364 110.769 239.646C112.19 239.928 113.662 239.782 115 239.226C116.338 238.669 117.481 237.728 118.284 236.521C119.088 235.314 119.516 233.895 119.514 232.445C119.512 230.501 118.739 228.638 117.366 227.265C115.994 225.892 114.133 225.12 112.192 225.12Z" fill="white"/>
<path d="M7.57893 170.656V169.798C7.31504 169.806 7.05256 169.756 6.80974 169.652C6.56692 169.549 6.3496 169.393 6.17289 169.197C5.82238 168.695 5.64753 168.091 5.67562 167.479L7.05595 167.265C7.03885 167.608 7.09739 167.951 7.22742 168.269C7.26503 168.361 7.3292 168.44 7.41169 168.495C7.49419 168.55 7.59124 168.579 7.69039 168.578C7.96474 168.578 8.10191 168.398 8.10191 168.046C8.10419 167.861 8.0692 167.677 7.99903 167.505C7.92976 167.351 7.84039 167.207 7.73325 167.076C7.5983 166.93 7.45518 166.793 7.30458 166.664L6.66157 166.106C6.5226 165.991 6.39089 165.867 6.26719 165.736C6.15703 165.61 6.05671 165.475 5.96712 165.333C5.86973 165.176 5.79741 165.005 5.75279 164.826C5.70225 164.621 5.67918 164.41 5.6842 164.199C5.6703 163.955 5.70564 163.711 5.78813 163.481C5.87062 163.251 5.99856 163.039 6.16431 162.86C6.52478 162.517 6.99659 162.316 7.4932 162.293V161.434H7.95617V162.293C8.13479 162.3 8.31124 162.335 8.47914 162.396C8.61936 162.443 8.75218 162.509 8.87352 162.594C8.97838 162.68 9.07327 162.778 9.15645 162.886C9.23054 162.994 9.29372 163.109 9.34506 163.229C9.39352 163.351 9.43082 163.478 9.45652 163.607C9.4865 163.734 9.50657 163.863 9.51653 163.993C9.52595 164.116 9.52595 164.24 9.51653 164.362L8.12763 164.543C8.12763 164.414 8.12763 164.311 8.12763 164.234C8.12763 164.156 8.12763 164.071 8.12763 163.976C8.1143 163.901 8.09713 163.826 8.07619 163.753C8.05092 163.7 8.02228 163.648 7.99046 163.598C7.95802 163.553 7.91348 163.517 7.86186 163.495C7.80223 163.486 7.74144 163.486 7.68181 163.495C7.61642 163.494 7.55178 163.509 7.49453 163.541C7.43727 163.573 7.38947 163.619 7.35602 163.676C7.28347 163.791 7.24485 163.925 7.24457 164.062C7.24303 164.19 7.26037 164.317 7.29601 164.44C7.33399 164.559 7.39518 164.67 7.47605 164.766C7.53949 164.85 7.60822 164.931 7.68181 165.006L7.93902 165.255L8.56488 165.796C8.71911 165.934 8.86511 166.08 9.00212 166.234C9.13298 166.384 9.2506 166.545 9.35364 166.715C9.46685 166.896 9.55347 167.093 9.61084 167.299C9.6662 167.524 9.69498 167.754 9.69658 167.986C9.70868 168.445 9.54322 168.89 9.23482 169.229C8.92642 169.569 8.49897 169.775 8.0419 169.806V170.665L7.57893 170.656Z" fill="url(#paint34_linear_1509_5597)"/>
<path d="M7.68181 173.739C6.1557 173.739 4.66388 173.286 3.39497 172.437C2.12606 171.587 1.13707 170.38 0.553054 168.968C-0.0309597 167.556 -0.183763 166.002 0.113965 164.503C0.411693 163.004 1.14658 161.627 2.2257 160.547C3.30481 159.466 4.67969 158.73 6.17647 158.432C7.67325 158.134 9.2247 158.287 10.6346 158.871C12.0446 159.456 13.2497 160.447 14.0975 161.718C14.9454 162.989 15.3979 164.483 15.3979 166.011C15.3979 168.061 14.585 170.026 13.1379 171.475C11.6909 172.925 9.72824 173.739 7.68181 173.739ZM7.68181 158.721C6.23337 158.713 4.81497 159.135 3.60606 159.934C2.39714 160.733 1.45203 161.873 0.890303 163.21C0.328573 164.547 0.175467 166.021 0.45035 167.445C0.725233 168.87 1.41575 170.18 2.43455 171.212C3.45335 172.243 4.75465 172.948 6.17381 173.238C7.59296 173.529 9.06621 173.391 10.4072 172.842C11.7481 172.294 12.8965 171.36 13.707 170.157C14.5176 168.955 14.9539 167.539 14.9607 166.088C14.9675 164.146 14.2053 162.28 12.841 160.899C11.4767 159.518 9.62146 158.735 7.68181 158.721Z" fill="url(#paint35_linear_1509_5597)"/>
</g>
<defs>
<linearGradient id="paint0_linear_1509_5597" x1="26.1233" y1="132.653" x2="314.603" y2="132.653" gradientUnits="userSpaceOnUse">
<stop stop-color="#E2F4FF"/>
<stop offset="1" stop-color="#D7ECFF"/>
</linearGradient>
<linearGradient id="paint1_linear_1509_5597" x1="4992.51" y1="4436.14" x2="15457.1" y2="4436.14" gradientUnits="userSpaceOnUse">
<stop stop-color="#E2F4FF"/>
<stop offset="1" stop-color="#D7ECFF"/>
</linearGradient>
<linearGradient id="paint2_linear_1509_5597" x1="19004.6" y1="2436.91" x2="23468.8" y2="2436.91" gradientUnits="userSpaceOnUse">
<stop stop-color="#E2F4FF"/>
<stop offset="1" stop-color="#D7ECFF"/>
</linearGradient>
<linearGradient id="paint3_linear_1509_5597" x1="182.169" y1="50.5143" x2="182.169" y2="28.0606" gradientUnits="userSpaceOnUse">
<stop stop-color="white"/>
<stop offset="1" stop-color="#E9F3FE"/>
</linearGradient>
<linearGradient id="paint4_linear_1509_5597" x1="246.598" y1="87.9685" x2="246.598" y2="29.5032" gradientUnits="userSpaceOnUse">
<stop stop-color="#DAEBFD"/>
<stop offset="1" stop-color="#7FB4FD"/>
</linearGradient>
<linearGradient id="paint5_linear_1509_5597" x1="111.369" y1="151.242" x2="209.175" y2="151.242" gradientUnits="userSpaceOnUse">
<stop stop-color="#8AD3FF"/>
<stop offset="1" stop-color="#5F9CFF"/>
</linearGradient>
<linearGradient id="paint6_linear_1509_5597" x1="12816.4" y1="169.055" x2="23974.1" y2="169.055" gradientUnits="userSpaceOnUse">
<stop stop-color="#8AD3FF"/>
<stop offset="1" stop-color="#5F9CFF"/>
</linearGradient>
<linearGradient id="paint7_linear_1509_5597" x1="165.751" y1="208.385" x2="253.646" y2="208.385" gradientUnits="userSpaceOnUse">
<stop stop-color="#9972FF"/>
<stop offset="1" stop-color="#7F85FF"/>
</linearGradient>
<linearGradient id="paint8_linear_1509_5597" x1="232.718" y1="218.998" x2="248.99" y2="218.998" gradientUnits="userSpaceOnUse">
<stop stop-color="#294698"/>
<stop offset="1" stop-color="#0E4BA6"/>
</linearGradient>
<linearGradient id="paint9_linear_1509_5597" x1="3480.16" y1="1006.2" x2="3804" y2="1006.2" gradientUnits="userSpaceOnUse">
<stop stop-color="#E2F4FF"/>
<stop offset="1" stop-color="#D7ECFF"/>
</linearGradient>
<linearGradient id="paint10_linear_1509_5597" x1="3902.64" y1="1006.2" x2="4226.47" y2="1006.2" gradientUnits="userSpaceOnUse">
<stop stop-color="#E2F4FF"/>
<stop offset="1" stop-color="#D7ECFF"/>
</linearGradient>
<linearGradient id="paint11_linear_1509_5597" x1="4325.12" y1="1006.2" x2="4648.95" y2="1006.2" gradientUnits="userSpaceOnUse">
<stop stop-color="#E2F4FF"/>
<stop offset="1" stop-color="#D7ECFF"/>
</linearGradient>
<linearGradient id="paint12_linear_1509_5597" x1="4747.6" y1="1006.2" x2="5071.44" y2="1006.2" gradientUnits="userSpaceOnUse">
<stop stop-color="#E2F4FF"/>
<stop offset="1" stop-color="#D7ECFF"/>
</linearGradient>
<linearGradient id="paint13_linear_1509_5597" x1="3642.08" y1="1367.4" x2="3642.08" y2="1476.15" gradientUnits="userSpaceOnUse">
<stop stop-color="#8AD3FF"/>
<stop offset="1" stop-color="#5F9CFF"/>
</linearGradient>
<linearGradient id="paint14_linear_1509_5597" x1="4068.24" y1="1367.4" x2="4068.24" y2="1476.15" gradientUnits="userSpaceOnUse">
<stop stop-color="#8AD3FF"/>
<stop offset="1" stop-color="#5F9CFF"/>
</linearGradient>
<linearGradient id="paint15_linear_1509_5597" x1="4494.39" y1="1367.4" x2="4494.39" y2="1476.15" gradientUnits="userSpaceOnUse">
<stop stop-color="#8AD3FF"/>
<stop offset="1" stop-color="#5F9CFF"/>
</linearGradient>
<linearGradient id="paint16_linear_1509_5597" x1="22941.8" y1="5334.3" x2="23578.4" y2="5334.3" gradientUnits="userSpaceOnUse">
<stop stop-color="#294698"/>
<stop offset="1" stop-color="#0E4BA6"/>
</linearGradient>
<linearGradient id="paint17_linear_1509_5597" x1="17698" y1="4581.09" x2="17540.9" y2="4581.09" gradientUnits="userSpaceOnUse">
<stop stop-color="#294698"/>
<stop offset="1" stop-color="#0E4BA6"/>
</linearGradient>
<linearGradient id="paint18_linear_1509_5597" x1="-3332.43" y1="33698.5" x2="-4935.59" y2="33698.5" gradientUnits="userSpaceOnUse">
<stop stop-color="#294698"/>
<stop offset="1" stop-color="#0E4BA6"/>
</linearGradient>
<linearGradient id="paint19_linear_1509_5597" x1="-1688.57" y1="7205.65" x2="-1688.57" y2="5970.22" gradientUnits="userSpaceOnUse">
<stop stop-color="#9972FF"/>
<stop offset="1" stop-color="#7F85FF"/>
</linearGradient>
<linearGradient id="paint20_linear_1509_5597" x1="-4094.22" y1="14522.6" x2="-4094.22" y2="12014.8" gradientUnits="userSpaceOnUse">
<stop stop-color="#9972FF"/>
<stop offset="1" stop-color="#7F85FF"/>
</linearGradient>
<linearGradient id="paint21_linear_1509_5597" x1="28066.5" y1="3225.72" x2="27700" y2="3225.72" gradientUnits="userSpaceOnUse">
<stop stop-color="#294698"/>
<stop offset="1" stop-color="#0E4BA6"/>
</linearGradient>
<linearGradient id="paint22_linear_1509_5597" x1="-2326.32" y1="6695.58" x2="-2326.32" y2="5548.64" gradientUnits="userSpaceOnUse">
<stop stop-color="#9972FF"/>
<stop offset="1" stop-color="#7F85FF"/>
</linearGradient>
<linearGradient id="paint23_linear_1509_5597" x1="1966.73" y1="3055.88" x2="2696.74" y2="3055.88" gradientUnits="userSpaceOnUse">
<stop stop-color="#294698"/>
<stop offset="1" stop-color="#0E4BA6"/>
</linearGradient>
<linearGradient id="paint24_linear_1509_5597" x1="6481.07" y1="1207.89" x2="16685.9" y2="1207.89" gradientUnits="userSpaceOnUse">
<stop stop-color="#8AD3FF"/>
<stop offset="1" stop-color="#5F9CFF"/>
</linearGradient>
<linearGradient id="paint25_linear_1509_5597" x1="3035.89" y1="2132.42" x2="3290.41" y2="2132.42" gradientUnits="userSpaceOnUse">
<stop stop-color="#294698"/>
<stop offset="1" stop-color="#0E4BA6"/>
</linearGradient>
<linearGradient id="paint26_linear_1509_5597" x1="12328.6" y1="10518.3" x2="12328.6" y2="11051" gradientUnits="userSpaceOnUse">
<stop stop-color="#8AD3FF"/>
<stop offset="1" stop-color="#5F9CFF"/>
</linearGradient>
<linearGradient id="paint27_linear_1509_5597" x1="13820.5" y1="10723.5" x2="13820.5" y2="11580" gradientUnits="userSpaceOnUse">
<stop stop-color="#8AD3FF"/>
<stop offset="1" stop-color="#5F9CFF"/>
</linearGradient>
<linearGradient id="paint28_linear_1509_5597" x1="10227.5" y1="14084.8" x2="9875.18" y2="14349.9" gradientUnits="userSpaceOnUse">
<stop stop-color="#8AD3FF"/>
<stop offset="1" stop-color="#5F9CFF"/>
</linearGradient>
<linearGradient id="paint29_linear_1509_5597" x1="10891.8" y1="14182.9" x2="10891.8" y2="16204.5" gradientUnits="userSpaceOnUse">
<stop stop-color="#8AD3FF"/>
<stop offset="1" stop-color="#5F9CFF"/>
</linearGradient>
<linearGradient id="paint30_linear_1509_5597" x1="-13577" y1="10755.7" x2="-14545.4" y2="10755.7" gradientUnits="userSpaceOnUse">
<stop stop-color="#E2F4FF"/>
<stop offset="1" stop-color="#D7ECFF"/>
</linearGradient>
<linearGradient id="paint31_linear_1509_5597" x1="-15221.5" y1="2066.97" x2="-16442.3" y2="2068.53" gradientUnits="userSpaceOnUse">
<stop stop-color="#294698"/>
<stop offset="1" stop-color="#0E4BA6"/>
</linearGradient>
<linearGradient id="paint32_linear_1509_5597" x1="1205.65" y1="750.834" x2="1205.65" y2="979.842" gradientUnits="userSpaceOnUse">
<stop stop-color="#8AD3FF"/>
<stop offset="1" stop-color="#5F9CFF"/>
</linearGradient>
<linearGradient id="paint33_linear_1509_5597" x1="4077.74" y1="1252" x2="4077.74" y2="1635.45" gradientUnits="userSpaceOnUse">
<stop stop-color="#8AD3FF"/>
<stop offset="1" stop-color="#5F9CFF"/>
</linearGradient>
<linearGradient id="paint34_linear_1509_5597" x1="241.146" y1="2574.19" x2="241.146" y2="2880.27" gradientUnits="userSpaceOnUse">
<stop stop-color="#8AD3FF"/>
<stop offset="1" stop-color="#5F9CFF"/>
</linearGradient>
<linearGradient id="paint35_linear_1509_5597" x1="902.905" y1="4198.24" x2="902.905" y2="4710.75" gradientUnits="userSpaceOnUse">
<stop stop-color="#8AD3FF"/>
<stop offset="1" stop-color="#5F9CFF"/>
</linearGradient>
<clipPath id="clip0_1509_5597">
<rect width="327" height="277" fill="white"/>
</clipPath>
</defs>
</svg>
