<svg width="18" height="19" viewBox="0 0 18 19" fill="none" xmlns="http://www.w3.org/2000/svg">
<path d="M17.4502 0.347007C17.3971 0.214915 17.2952 0.108356 17.1656 0.0494984C17.036 -0.00935938 16.8887 -0.0159842 16.7543 0.031002C16.62 0.0779882 16.5089 0.174968 16.4442 0.301766C16.3795 0.428564 16.3662 0.575417 16.4071 0.711776C17.2564 3.15271 15.5706 4.97564 14.2852 5.95201L13.7659 5.20785C13.5913 4.95827 13.2009 4.75074 12.8974 4.74709L9.98292 4.75989C9.62689 4.77064 9.28038 4.8774 8.98004 5.06889L0.391971 11.0908C0.192212 11.2313 0.0562914 11.4453 0.0139693 11.6859C-0.0283528 11.9265 0.0263719 12.174 0.166162 12.3743L4.06891 17.9583C4.36146 18.3743 4.82862 18.324 5.2455 18.0333L13.8336 12.0105C14.0804 11.8359 14.3656 11.4592 14.4662 11.1712L15.3786 8.29604C15.4791 8.00898 15.4179 7.57107 15.2433 7.3215L14.927 6.86805C16.653 5.54519 18.4448 3.20756 17.4502 0.347007ZM13.4542 8.90216C13.296 9.01291 13.1175 9.0914 12.9289 9.13314C12.7404 9.17488 12.5454 9.17906 12.3552 9.14544C12.1651 9.11182 11.9834 9.04106 11.8206 8.9372C11.6578 8.83334 11.517 8.69841 11.4063 8.54013C11.1823 8.21985 11.0945 7.82375 11.1622 7.43879C11.2299 7.05382 11.4476 6.71145 11.7675 6.48682C12.0182 6.31113 12.3176 6.21818 12.6238 6.22096C12.93 6.22375 13.2277 6.32214 13.4752 6.50237C13.2265 6.6523 13.0556 6.74006 13.0236 6.75377C12.9102 6.80781 12.8186 6.89873 12.7638 7.01165C12.7089 7.12456 12.694 7.25277 12.7215 7.37527C12.749 7.49777 12.8173 7.60728 12.9152 7.68588C13.0131 7.76447 13.1348 7.80748 13.2604 7.80785C13.339 7.80785 13.4194 7.78957 13.4953 7.75392C13.6727 7.66981 13.8628 7.57016 14.0612 7.45223C14.1068 7.72655 14.0741 8.00818 13.9667 8.26469C13.8593 8.52121 13.6816 8.74218 13.4542 8.90216Z" fill="#999798"/>
</svg>
