<svg width="25" height="25" viewBox="0 0 25 25" fill="none" xmlns="http://www.w3.org/2000/svg">
<path d="M22.7782 4.5214V19.7354H4.5214V4.5214H22.7782ZM22.7782 3H4.5214C4.1179 3 3.73093 3.16029 3.44561 3.44561C3.16029 3.73093 3 4.1179 3 4.5214V19.7354C3 20.1389 3.16029 20.5259 3.44561 20.8112C3.73093 21.0965 4.1179 21.2568 4.5214 21.2568H22.7782C23.1817 21.2568 23.5687 21.0965 23.854 20.8112C24.1393 20.5259 24.2996 20.1389 24.2996 19.7354V4.5214C24.2996 4.1179 24.1393 3.73093 23.854 3.44561C23.5687 3.16029 23.1817 3 22.7782 3Z" fill="#26579F"/>
<path d="M4.56415 7.60693H9.88905V9.12833H4.56415V7.60693Z" fill="#26579F"/>
<path d="M4.56415 10.6499H7.60695V12.1713H4.56415V10.6499Z" fill="#26579F"/>
<path d="M17.4961 13.6924H12.9319C12.3267 13.6924 11.7462 13.9328 11.3183 14.3608C10.8903 14.7888 10.6498 15.3692 10.6498 15.9745V17.4959H12.1712V15.9745C12.1712 15.7727 12.2514 15.5792 12.394 15.4366C12.5367 15.2939 12.7302 15.2138 12.9319 15.2138H17.4961C17.6979 15.2138 17.8914 15.2939 18.034 15.4366C18.1767 15.5792 18.2568 15.7727 18.2568 15.9745V17.4959H19.7782V15.9745C19.7782 15.3692 19.5378 14.7888 19.1098 14.3608C18.6819 13.9328 18.1014 13.6924 17.4961 13.6924Z" fill="#26579F"/>
<path d="M15.214 12.9318C15.8158 12.9318 16.4041 12.7533 16.9045 12.419C17.4049 12.0846 17.7949 11.6094 18.0252 11.0534C18.2555 10.4974 18.3157 9.88562 18.1983 9.29537C18.0809 8.70513 17.7911 8.16295 17.3656 7.73741C16.94 7.31187 16.3979 7.02207 15.8076 6.90466C15.2174 6.78725 14.6056 6.84751 14.0496 7.07781C13.4936 7.30811 13.0184 7.69812 12.684 8.1985C12.3497 8.69889 12.1712 9.28718 12.1712 9.88899C12.1712 10.696 12.4918 11.4699 13.0624 12.0406C13.6331 12.6112 14.407 12.9318 15.214 12.9318ZM15.214 8.36759C15.5149 8.36759 15.8091 8.45682 16.0592 8.624C16.3094 8.79117 16.5044 9.02878 16.6196 9.30678C16.7347 9.58478 16.7649 9.89068 16.7062 10.1858C16.6475 10.4809 16.5026 10.752 16.2898 10.9648C16.077 11.1776 15.8059 11.3225 15.5108 11.3812C15.2157 11.4399 14.9098 11.4097 14.6318 11.2946C14.3538 11.1794 14.1162 10.9844 13.949 10.7342C13.7818 10.484 13.6926 10.1899 13.6926 9.88899C13.6926 9.48549 13.8529 9.09852 14.1382 8.8132C14.4235 8.52788 14.8105 8.36759 15.214 8.36759Z" fill="#26579F"/>
</svg>
