<svg width="26" height="21" viewBox="0 0 26 21" fill="none" xmlns="http://www.w3.org/2000/svg">
<path fill-rule="evenodd" clip-rule="evenodd" d="M6.86572 3.29046C6.94765 3.17656 7.03864 3.03712 7.15468 2.84911C7.2197 2.74375 7.45694 2.35132 7.49572 2.28788C8.45437 0.719744 9.15125 0 10.4078 0H15.0335C16.2901 0 16.987 0.719744 17.9456 2.28788C17.9844 2.35132 18.2216 2.74375 18.2867 2.84911C18.4027 3.03712 18.4937 3.17656 18.5756 3.29046C18.6297 3.36558 18.6768 3.42526 18.7153 3.46927H21.9721C23.8881 3.46927 25.4413 5.02252 25.4413 6.93855V17.3464C25.4413 19.2624 23.8881 20.8156 21.9721 20.8156H3.46927C1.55325 20.8156 0 19.2624 0 17.3464V6.93855C0 5.02252 1.55325 3.46927 3.46927 3.46927H6.72599C6.76449 3.42526 6.81169 3.36558 6.86572 3.29046ZM3.46927 5.78212C2.8306 5.78212 2.31285 6.29987 2.31285 6.93855V17.3464C2.31285 17.985 2.8306 18.5028 3.46927 18.5028H21.9721C22.6107 18.5028 23.1285 17.985 23.1285 17.3464V6.93855C23.1285 6.29987 22.6107 5.78212 21.9721 5.78212H18.5028C17.7345 5.78212 17.2164 5.36166 16.6981 4.64103C16.5788 4.47522 16.4606 4.29417 16.3185 4.06378C16.2467 3.94743 16.0059 3.54916 15.9723 3.49424C15.4493 2.63864 15.1338 2.31285 15.0335 2.31285H10.4078C10.3075 2.31285 9.99209 2.63864 9.46903 3.49424C9.43546 3.54916 9.19469 3.94743 9.12289 4.06378C8.9807 4.29417 8.86255 4.47522 8.74328 4.64103C8.22492 5.36166 7.70681 5.78212 6.93855 5.78212H3.46927ZM20.8156 9.2514C21.4543 9.2514 21.9721 8.73365 21.9721 8.09497C21.9721 7.4563 21.4543 6.93855 20.8156 6.93855C20.177 6.93855 19.6592 7.4563 19.6592 8.09497C19.6592 8.73365 20.177 9.2514 20.8156 9.2514ZM12.7207 17.3464C9.52729 17.3464 6.93855 14.7576 6.93855 11.5642C6.93855 8.37087 9.52729 5.78212 12.7207 5.78212C15.914 5.78212 18.5028 8.37087 18.5028 11.5642C18.5028 14.7576 15.914 17.3464 12.7207 17.3464ZM12.7207 15.0335C14.6367 15.0335 16.1899 13.4803 16.1899 11.5642C16.1899 9.64822 14.6367 8.09497 12.7207 8.09497C10.8046 8.09497 9.2514 9.64822 9.2514 11.5642C9.2514 13.4803 10.8046 15.0335 12.7207 15.0335Z" fill="black"/>
</svg>
