<svg width="16" height="16" viewBox="0 0 16 16" fill="none" xmlns="http://www.w3.org/2000/svg">
<path d="M-6.99382e-07 8C-1.08573e-06 3.58065 3.58064 1.08573e-06 8 6.99382e-07C12.4194 3.1303e-07 16 3.58065 16 8C16 12.4194 12.4194 16 8 16C3.58065 16 -3.1303e-07 12.4194 -6.99382e-07 8ZM7.45161 4.32581L3.08064 8.69678C2.77742 9 2.77742 9.49032 3.08065 9.79032L3.62903 10.3387C3.93226 10.6419 4.42258 10.6419 4.72258 10.3387L8 7.06129L11.2774 10.3387C11.5806 10.6419 12.071 10.6419 12.371 10.3387L12.9194 9.79032C13.2226 9.4871 13.2226 8.99677 12.9194 8.69677L8.54839 4.32581C8.24516 4.02258 7.75484 4.02258 7.45161 4.32581Z" fill="#0054A4"/>
</svg>
