<svg width="29" height="30" viewBox="0 0 29 30" fill="none" xmlns="http://www.w3.org/2000/svg">
<path d="M15.4062 20.3442V12.9463H11.7812V14.7958H13.5938V20.3442H10.875V22.1937H18.125V20.3442H15.4062Z" fill="black"/>
<path d="M14.5 7.39844C14.2311 7.39844 13.9683 7.47979 13.7448 7.63221C13.5212 7.78463 13.347 8.00127 13.2441 8.25473C13.1412 8.50819 13.1143 8.78709 13.1667 9.05617C13.2192 9.32524 13.3487 9.5724 13.5388 9.7664C13.7289 9.96039 13.9711 10.0925 14.2348 10.146C14.4985 10.1995 14.7718 10.1721 15.0202 10.0671C15.2686 9.9621 15.4809 9.78431 15.6303 9.5562C15.7796 9.32809 15.8594 9.0599 15.8594 8.78555C15.8594 8.41767 15.7162 8.06485 15.4612 7.80471C15.2063 7.54458 14.8605 7.39844 14.5 7.39844Z" fill="black"/>
<path d="M14.5 27.7425C11.9907 27.7425 9.53766 26.9832 7.45121 25.5606C5.36476 24.138 3.73857 22.1161 2.77828 19.7504C1.818 17.3848 1.56674 14.7817 2.05629 12.2703C2.54584 9.75896 3.75421 7.45213 5.52859 5.64154C7.30297 3.83095 9.56366 2.59792 12.0248 2.09838C14.4859 1.59884 17.037 1.85522 19.3553 2.8351C21.6736 3.81499 23.6552 5.47436 25.0493 7.60339C26.4434 9.73242 27.1875 12.2355 27.1875 14.796C27.1875 18.2297 25.8508 21.5226 23.4714 23.9506C21.0921 26.3785 17.8649 27.7425 14.5 27.7425ZM14.5 3.69911C12.3491 3.69911 10.2466 4.34993 8.45818 5.56928C6.6698 6.78862 5.27592 8.52173 4.45282 10.5494C3.62971 12.5771 3.41435 14.8084 3.83397 16.9609C4.25358 19.1135 5.28932 21.0908 6.81022 22.6428C8.33112 24.1947 10.2689 25.2516 12.3784 25.6798C14.4879 26.1079 16.6745 25.8882 18.6617 25.0483C20.6488 24.2084 22.3473 22.7861 23.5422 20.9612C24.7372 19.1363 25.375 16.9908 25.375 14.796C25.375 11.853 24.2292 9.0304 22.1898 6.94932C20.1503 4.86824 17.3842 3.69911 14.5 3.69911Z" fill="black"/>
</svg>
