<svg width="58" height="58" viewBox="0 0 58 58" fill="none" xmlns="http://www.w3.org/2000/svg">
<rect width="58" height="58" rx="29" fill="#0054A4"/>
<path d="M43.1696 43.8125H41.7857V12.6406C41.7857 11.7345 41.0422 11 40.125 11H16.875C15.9578 11 15.2143 11.7345 15.2143 12.6406V43.8125H13.8304C13.3718 43.8125 13 44.1798 13 44.6328V46H44V44.6328C44 44.1798 43.6282 43.8125 43.1696 43.8125ZM21.8571 16.1953C21.8571 15.7423 22.2289 15.375 22.6875 15.375H25.4554C25.9139 15.375 26.2857 15.7423 26.2857 16.1953V18.9297C26.2857 19.3827 25.9139 19.75 25.4554 19.75H22.6875C22.2289 19.75 21.8571 19.3827 21.8571 18.9297V16.1953ZM21.8571 22.7578C21.8571 22.3048 22.2289 21.9375 22.6875 21.9375H25.4554C25.9139 21.9375 26.2857 22.3048 26.2857 22.7578V25.4922C26.2857 25.9452 25.9139 26.3125 25.4554 26.3125H22.6875C22.2289 26.3125 21.8571 25.9452 21.8571 25.4922V22.7578ZM25.4554 32.875H22.6875C22.2289 32.875 21.8571 32.5077 21.8571 32.0547V29.3203C21.8571 28.8673 22.2289 28.5 22.6875 28.5H25.4554C25.9139 28.5 26.2857 28.8673 26.2857 29.3203V32.0547C26.2857 32.5077 25.9139 32.875 25.4554 32.875ZM30.7143 43.8125H26.2857V38.0703C26.2857 37.6173 26.6575 37.25 27.1161 37.25H29.8839C30.3425 37.25 30.7143 37.6173 30.7143 38.0703V43.8125ZM35.1429 32.0547C35.1429 32.5077 34.7711 32.875 34.3125 32.875H31.5446C31.0861 32.875 30.7143 32.5077 30.7143 32.0547V29.3203C30.7143 28.8673 31.0861 28.5 31.5446 28.5H34.3125C34.7711 28.5 35.1429 28.8673 35.1429 29.3203V32.0547ZM35.1429 25.4922C35.1429 25.9452 34.7711 26.3125 34.3125 26.3125H31.5446C31.0861 26.3125 30.7143 25.9452 30.7143 25.4922V22.7578C30.7143 22.3048 31.0861 21.9375 31.5446 21.9375H34.3125C34.7711 21.9375 35.1429 22.3048 35.1429 22.7578V25.4922ZM35.1429 18.9297C35.1429 19.3827 34.7711 19.75 34.3125 19.75H31.5446C31.0861 19.75 30.7143 19.3827 30.7143 18.9297V16.1953C30.7143 15.7423 31.0861 15.375 31.5446 15.375H34.3125C34.7711 15.375 35.1429 15.7423 35.1429 16.1953V18.9297Z" fill="white"/>
</svg>
