<svg width="32" height="32" viewBox="0 0 32 32" fill="none" xmlns="http://www.w3.org/2000/svg">
<path d="M16 17.4C11.5303 17.4 7.89471 13.9462 7.89471 9.7C7.89471 5.4538 11.5303 2 16 2C20.4697 2 24.1052 5.4538 24.1052 9.7C24.1052 13.9462 20.4697 17.4 16 17.4ZM16 3.4C12.3438 3.4 9.3684 6.2266 9.3684 9.7C9.3684 13.1734 12.3438 16 16 16C19.6562 16 22.6316 13.1734 22.6316 9.7C22.6316 6.2266 19.6562 3.4 16 3.4Z" fill="#6D6D6D"/>
<path d="M27.7895 30.0008H4.21053C2.99179 30.0008 2 29.0586 2 27.9008C2 27.8056 2.02063 25.5418 3.80526 23.2808C4.84421 21.9648 6.26632 20.919 8.03326 20.1742C10.1907 19.2628 12.8714 18.8008 16 18.8008C19.1286 18.8008 21.8093 19.2628 23.9667 20.1742C25.7337 20.9204 27.1558 21.9648 28.1947 23.2808C29.9794 25.5418 30 27.8056 30 27.9008C30 29.0586 29.0082 30.0008 27.7895 30.0008ZM16 20.2008C10.8613 20.2008 7.06947 21.535 5.03432 24.0592C3.50905 25.9506 3.47516 27.884 3.47368 27.9036C3.47368 28.2872 3.80379 28.6008 4.21053 28.6008H27.7895C28.1962 28.6008 28.5263 28.2872 28.5263 27.9008C28.5263 27.884 28.4924 25.9506 26.9657 24.0592C24.9291 21.535 21.1373 20.2008 16 20.2008Z" fill="#6D6D6D"/>
</svg>
