<svg width="14" height="12" viewBox="0 0 14 12" fill="none" xmlns="http://www.w3.org/2000/svg">
<path d="M7.875 11.2501C8.91335 11.2501 9.92839 10.9422 10.7917 10.3653C11.6551 9.78846 12.328 8.96852 12.7254 8.00921C13.1227 7.0499 13.2267 5.9943 13.0241 4.9759C12.8216 3.9575 12.3215 3.02204 11.5873 2.28781C10.8531 1.55359 9.91762 1.05357 8.89922 0.851002C7.88082 0.648429 6.82522 0.752397 5.86591 1.14976C4.9066 1.54712 4.08666 2.22002 3.50978 3.08338C2.93291 3.94674 2.625 4.96177 2.625 6.00012V8.71263L1.05 7.13762L0.4375 7.75012L3.0625 10.3751L5.6875 7.75012L5.075 7.13762L3.5 8.71263V6.00012C3.5 5.13483 3.75659 4.28897 4.23732 3.5695C4.71805 2.85004 5.40133 2.28928 6.20076 1.95815C7.00019 1.62702 7.87985 1.54038 8.72852 1.70919C9.57719 1.878 10.3567 2.29468 10.9686 2.90653C11.5804 3.51839 11.9971 4.29794 12.1659 5.1466C12.3347 5.99527 12.2481 6.87494 11.917 7.67436C11.5858 8.47379 11.0251 9.15707 10.3056 9.6378C9.58615 10.1185 8.74029 10.3751 7.875 10.3751V11.2501Z" fill="#E99D2B"/>
</svg>
