<svg width="59" height="60" viewBox="0 0 59 60" fill="none" xmlns="http://www.w3.org/2000/svg">
<path d="M33.4924 54.6774C39.4324 60.6417 48.9659 60.7714 54.7449 54.969C60.5238 49.1666 60.3947 39.5944 54.4542 33.6299L52.0145 31.1802L47.2273 35.9868L49.667 38.4365C52.9654 41.7504 53.0945 47.0106 49.9555 50.1624C46.8164 53.3143 41.5775 53.1847 38.2774 49.8708L20.1958 31.7159L15.4087 36.5225L33.4924 54.6774Z" fill="#F1666A"/>
<path d="M43.6794 22.809L25.5035 4.55906C19.5632 -1.40329 10.0299 -1.53506 4.25091 4.26742C-1.52804 10.0699 -1.39895 19.6421 4.54133 25.6066L7.07581 28.1514L11.8629 23.3447L9.32846 20.8C6.02803 17.4861 5.89894 12.228 9.03803 9.07401C12.1771 5.92221 17.416 6.05182 20.7164 9.36349L38.8923 27.6135L43.6794 22.809Z" fill="#F1666A"/>
<path d="M33.4922 4.55957L31.1318 6.93156L35.919 11.7381L38.281 9.36832C41.5817 6.05446 46.8183 5.92485 49.9597 9.0767C53.0988 12.2285 52.9696 17.4888 49.6712 20.8026L31.6607 38.8905L36.4501 43.6993L54.4584 25.6092C60.3989 19.6469 60.528 10.0748 54.7491 4.27009C48.9657 -1.53455 39.4321 -1.40494 33.4922 4.55957Z" fill="#393A3B"/>
<path d="M20.7163 49.8732C17.4181 53.1871 12.177 53.3167 9.03795 50.1627C5.89673 47.0109 6.02794 41.7506 9.32837 38.4368L27.5842 20.1069L22.7968 15.3003L4.54125 33.6302C-1.39692 39.5925 -1.52812 49.1668 4.25295 54.9693C10.0319 60.7717 19.5653 60.642 25.5056 54.6777L27.3924 52.7831L22.6054 47.9765L20.7163 49.8732Z" fill="#393A3B"/>
</svg>
