<svg width="31" height="32" viewBox="0 0 31 32" fill="none" xmlns="http://www.w3.org/2000/svg">
<path d="M7.61354 14.0449C6.42683 15.5283 3.01505 14.6383 2.33269 17.9017C1.68 19.6818 1.68 25.3186 5.24012 24.7253C4.94345 20.2751 4.64677 18.1984 4.64677 18.1984C4.64677 18.1984 4.94345 22.3519 5.24012 24.4286C7.91021 25.6153 12.3604 25.6153 15.6238 24.1319C15.6238 21.7585 15.3271 20.2751 15.6238 18.7917C15.6238 17.3084 15.6238 24.4286 15.6238 24.4286C15.6238 24.4286 17.4039 25.022 17.9972 22.9452C18.8872 19.9785 19.4806 15.825 15.3271 14.6383C12.657 14.3416 13.2504 14.0449 12.9537 14.0449C12.3604 14.0449 7.61354 14.0449 7.61354 14.0449Z" fill="#427794" stroke="#2A424F" stroke-width="2.62373"/>
<path d="M7.91057 18.5618C7.91057 18.5618 8.20724 19.4518 7.61389 20.0452C8.50392 21.2319 10.8773 22.4186 12.9541 20.0452C12.6574 19.4518 12.6574 19.4518 12.6574 18.5618H7.91057Z" fill="#C29B82" stroke="#693311" stroke-width="2.62373"/>
<path d="M10.2833 13.7484C6.12978 13.7484 3.34102 2.712 10.2833 2.53399C17.4035 2.50433 14.14 13.7484 10.2833 13.7484Z" fill="#CDA68E" stroke="#693311" stroke-width="2.62373"/>
<path d="M6.13033 9.00157C5.2403 6.0348 5.2403 2.23734 10.2838 2C14.1406 2.20767 15.624 5.73812 14.1406 9.00157C14.1406 7.51818 14.4373 6.92483 13.8439 6.0348C12.6572 5.73812 10.8772 6.0348 9.39377 4.55142C9.09709 5.73812 5.53697 5.14477 6.13033 9.00157Z" fill="#553932" stroke="#311710" stroke-width="2.62373"/>
<path d="M14.4375 20.572C15.9209 18.1986 14.4375 13.1551 15.3275 11.375C16.2176 8.40823 17.4043 6.62817 20.0744 6.62817C23.0411 6.62817 24.8212 9.00159 26.0079 11.6717C26.3046 12.265 26.0079 13.4517 26.6012 14.9351C26.8979 16.1218 26.3046 17.3085 26.3046 17.9019C26.3046 19.3853 26.0079 18.7919 26.8979 20.572C25.4145 24.4288 16.8109 23.5387 14.4375 20.572Z" fill="#5F3E20" stroke="#311710" stroke-width="2.62373"/>
<path d="M18.2937 19.0886C16.8103 20.572 12.9535 19.9787 12.3602 22.9454C11.7668 24.7255 12.0635 30.3623 15.6236 30.0657C15.327 25.3188 14.7336 23.2421 14.7336 23.2421C14.7336 23.2421 15.327 27.6922 15.6236 29.4723C18.2937 30.9557 22.4472 30.9557 26.0073 29.1756C26.0073 27.3956 25.7106 25.3188 26.0073 23.8354C26.304 22.3521 26.0073 29.769 26.0073 29.769C26.0073 29.769 28.084 30.0657 28.6774 27.9889C29.2708 25.3188 29.8641 21.462 26.6007 20.572C23.9306 19.682 23.6339 19.0886 23.0405 19.0886C22.7439 19.0886 18.2937 19.0886 18.2937 19.0886Z" fill="#D8933B" stroke="#2A424F" stroke-width="2.62373"/>
<path d="M18.2949 17.3086C18.2949 17.3086 18.5916 18.1986 18.2949 19.3853C19.185 20.2754 21.2617 21.7587 23.0417 19.3853C22.7451 18.1986 22.7451 18.1986 22.7451 17.3086H18.2949Z" fill="#DEB89F" stroke="#693311" stroke-width="2.62373"/>
<path d="M20.6678 18.7921C16.5143 18.7921 13.8442 7.51836 20.6678 7.22168C26.6013 7.51836 24.5246 18.7921 20.6678 18.7921Z" fill="#DBBFA8" stroke="#693311" stroke-width="2.62373"/>
<path d="M19.7766 9.29822C18.8866 10.7816 17.6999 11.6716 16.2165 11.9683C15.0298 12.265 16.8099 6.9248 20.0733 6.9248C21.5567 6.9248 23.9301 7.81483 24.5235 11.375C22.7434 11.6716 20.37 9.89157 19.7766 9.29822Z" fill="#5F3E20"/>
</svg>
