<svg width="25" height="33" viewBox="0 0 25 33" fill="none" xmlns="http://www.w3.org/2000/svg">
<path d="M9.08024 17.0322C7.60068 18.8077 3.162 17.92 2.27426 21.7668C1.68243 23.8382 1.68243 30.6442 6.12112 30.0524C5.82521 24.7259 5.23338 22.0627 5.23338 22.0627C5.23338 22.0627 5.82521 27.0932 6.12112 29.4605C9.37615 31.236 14.4067 31.236 18.5494 29.1646C18.5494 26.7973 18.2535 24.7259 18.5494 22.6546C18.8453 20.8791 18.5494 29.7564 18.5494 29.7564C18.5494 29.7564 21.2126 30.3483 22.1004 27.6851C22.6922 24.43 23.5799 19.1036 18.2535 17.92C14.9985 17.3281 15.8862 17.0322 15.2944 17.0322C14.7026 17.0322 9.08024 17.0322 9.08024 17.0322Z" fill="#427794" stroke="#2A424F" stroke-width="3.97338"/>
<path d="M9.37575 14.9609C9.37575 14.9609 9.67166 16.1446 9.07983 17.0323C10.2635 18.216 12.9267 19.9914 15.294 17.0323C14.9981 16.1446 14.9981 16.1446 14.9981 14.9609H9.37575Z" fill="#C29B82" stroke="#693311" stroke-width="3.97338"/>
<path d="M12.3352 16.4404C7.30469 16.4404 3.75374 2.85806 12.0393 2.65093C20.9166 2.62134 17.0698 16.4404 12.3352 16.4404Z" fill="#CDA68E" stroke="#693311" stroke-width="3.97338"/>
<path d="M7.30442 10.5223C6.12077 7.26724 6.12077 2.29591 12.039 2C17.0695 2.26632 18.845 6.97132 17.0695 10.5223C17.0695 9.04271 17.3654 8.45089 16.4777 7.26724C14.9981 6.97132 12.9268 7.26724 11.1513 5.19585C10.5595 6.97132 6.41668 6.08359 7.30442 10.5223Z" fill="#553932" stroke="#311710" stroke-width="3.97338"/>
</svg>
