<svg width="21" height="21" viewBox="0 0 21 21" fill="none" xmlns="http://www.w3.org/2000/svg">
<path d="M20.1081 10.0541C20.1081 15.6068 15.6068 20.1081 10.0541 20.1081C4.50134 20.1081 0 15.6068 0 10.0541C0 4.50134 4.50134 0 10.0541 0C15.6068 0 20.1081 4.50134 20.1081 10.0541ZM8.89111 15.3776L16.3506 7.91814C16.6039 7.66484 16.6039 7.25412 16.3506 7.00082L15.4333 6.08351C15.18 5.83018 14.7692 5.83018 14.5159 6.08351L8.43243 12.1669L5.5922 9.32672C5.33891 9.07342 4.92819 9.07342 4.67485 9.32672L3.75754 10.244C3.50424 10.4973 3.50424 10.908 3.75754 11.1613L7.97376 15.3776C8.2271 15.6309 8.63777 15.6309 8.89111 15.3776Z" fill="#4CAF50"/>
</svg>
