<svg width="32" height="32" viewBox="0 0 32 32" fill="none" xmlns="http://www.w3.org/2000/svg">
<mask id="mask0_13197_3120" style="mask-type:alpha" maskUnits="userSpaceOnUse" x="2" y="2" width="28" height="28">
<rect x="2" y="2" width="28" height="28" fill="#D9D9D9"/>
</mask>
<g mask="url(#mask0_13197_3120)">
<path d="M14.3663 21.3666L22.5913 13.1416L20.958 11.5083L14.3663 18.0999L11.0413 14.7749L9.40801 16.4083L14.3663 21.3666ZM15.9997 27.6666C14.3858 27.6666 12.8691 27.3601 11.4497 26.7473C10.0302 26.1351 8.79551 25.3041 7.74551 24.2541C6.69551 23.2041 5.86445 21.9694 5.25234 20.5499C4.63945 19.1305 4.33301 17.6138 4.33301 15.9999C4.33301 14.386 4.63945 12.8694 5.25234 11.4499C5.86445 10.0305 6.69551 8.79575 7.74551 7.74575C8.79551 6.69575 10.0302 5.86431 11.4497 5.25142C12.8691 4.63931 14.3858 4.33325 15.9997 4.33325C17.6136 4.33325 19.1302 4.63931 20.5497 5.25142C21.9691 5.86431 23.2038 6.69575 24.2538 7.74575C25.3038 8.79575 26.1349 10.0305 26.747 11.4499C27.3599 12.8694 27.6663 14.386 27.6663 15.9999C27.6663 17.6138 27.3599 19.1305 26.747 20.5499C26.1349 21.9694 25.3038 23.2041 24.2538 24.2541C23.2038 25.3041 21.9691 26.1351 20.5497 26.7473C19.1302 27.3601 17.6136 27.6666 15.9997 27.6666ZM15.9997 25.3333C18.6052 25.3333 20.8122 24.4291 22.6205 22.6208C24.4288 20.8124 25.333 18.6055 25.333 15.9999C25.333 13.3944 24.4288 11.1874 22.6205 9.37909C20.8122 7.57075 18.6052 6.66659 15.9997 6.66659C13.3941 6.66659 11.1872 7.57075 9.37884 9.37909C7.57051 11.1874 6.66634 13.3944 6.66634 15.9999C6.66634 18.6055 7.57051 20.8124 9.37884 22.6208C11.1872 24.4291 13.3941 25.3333 15.9997 25.3333Z" fill="#CBCBCB"/>
</g>
</svg>
