<svg width="17" height="20" viewBox="0 0 17 20" fill="none" xmlns="http://www.w3.org/2000/svg">
<path d="M7.275 14.7138L13.4437 8.2513L12.2188 6.96797L7.275 12.1471L4.78125 9.53463L3.55625 10.818L7.275 14.7138ZM2.375 19.2513C1.89375 19.2513 1.48162 19.0719 1.13862 18.7132C0.796208 18.3539 0.625 17.9221 0.625 17.418V4.58464C0.625 4.08047 0.796208 3.64872 1.13862 3.28939C1.48162 2.93066 1.89375 2.7513 2.375 2.7513H6.05C6.23958 2.2013 6.55692 1.75825 7.002 1.42214C7.4465 1.08602 7.94583 0.917969 8.5 0.917969C9.05417 0.917969 9.55379 1.08602 9.99888 1.42214C10.4434 1.75825 10.7604 2.2013 10.95 2.7513H14.625C15.1062 2.7513 15.5184 2.93066 15.8614 3.28939C16.2038 3.64872 16.375 4.08047 16.375 4.58464V17.418C16.375 17.9221 16.2038 18.3539 15.8614 18.7132C15.5184 19.0719 15.1062 19.2513 14.625 19.2513H2.375ZM2.375 17.418H14.625V4.58464H2.375V17.418ZM8.5 3.89714C8.68958 3.89714 8.8465 3.83205 8.97075 3.70189C9.09442 3.57233 9.15625 3.40825 9.15625 3.20964C9.15625 3.01102 9.09442 2.84664 8.97075 2.71647C8.8465 2.58691 8.68958 2.52214 8.5 2.52214C8.31042 2.52214 8.15379 2.58691 8.03013 2.71647C7.90588 2.84664 7.84375 3.01102 7.84375 3.20964C7.84375 3.40825 7.90588 3.57233 8.03013 3.70189C8.15379 3.83205 8.31042 3.89714 8.5 3.89714Z" fill="#0054A4"/>
</svg>
