<svg width="32" height="32" viewBox="0 0 32 32" fill="none" xmlns="http://www.w3.org/2000/svg">
<path fill-rule="evenodd" clip-rule="evenodd" d="M7.83077 31.3105C5.23692 31.3105 3.13419 29.2078 3.13419 26.6139V17.2208H1.56866C0.17393 17.2208 -0.524556 15.5345 0.46167 14.5483L14.5514 0.458532C15.1628 -0.152844 16.154 -0.152844 16.7654 0.458532L30.8551 14.5483C31.8414 15.5345 31.1429 17.2208 29.7481 17.2208H28.1826V26.6139C28.1826 29.2078 26.0799 31.3105 23.486 31.3105H7.83077ZM15.6584 3.77951L5.24908 14.1888C5.84271 14.4113 6.26524 14.9839 6.26524 15.6553V26.6139C6.26524 27.4786 6.96615 28.1795 7.83077 28.1795L10.9618 28.1779L10.9618 21.9174C10.9618 20.1881 12.3636 18.7863 14.0929 18.7863H17.2239C18.9532 18.7863 20.355 20.1881 20.355 21.9174L20.355 28.1779L23.486 28.1795C24.3506 28.1795 25.0516 27.4786 25.0516 26.6139V15.6553C25.0516 14.9839 25.4741 14.4113 26.0677 14.1888L15.6584 3.77951ZM17.2239 21.9174H14.0929V28.1779H17.2239V21.9174Z" fill="#26579F"/>
</svg>
