<svg width="14" height="17" viewBox="0 0 14 17" fill="none" xmlns="http://www.w3.org/2000/svg">
<path d="M6.59902 10.3889C4.51643 10.3889 2.82815 8.69752 2.82815 6.61111C2.82815 4.5247 4.51643 2.83333 6.59902 2.83333C8.68161 2.83333 10.3699 4.5247 10.3699 6.61111C10.3699 8.69752 8.68161 10.3889 6.59902 10.3889ZM6.59902 9.44444C8.16096 9.44444 9.42717 8.17592 9.42717 6.61111C9.42717 5.0463 8.16096 3.77778 6.59902 3.77778C5.03707 3.77778 3.77087 5.0463 3.77087 6.61111C3.77087 8.17592 5.03707 9.44444 6.59902 9.44444ZM6.91873 16.8748C6.73817 17.0417 6.45987 17.0417 6.27931 16.8748C2.10681 13.0162 0 9.60663 0 6.61111C0 2.9599 2.95448 0 6.59902 0C10.2436 0 13.198 2.9599 13.198 6.61111C13.198 9.60663 11.0912 13.0162 6.91873 16.8748ZM12.2553 6.61111C12.2553 3.4815 9.72291 0.944444 6.59902 0.944444C3.47513 0.944444 0.942717 3.4815 0.942717 6.61111C0.942717 9.21007 2.81552 12.3112 6.59902 15.8821C10.3825 12.3112 12.2553 9.21007 12.2553 6.61111Z" fill="#999798"/>
</svg>
