<svg width="25" height="40" viewBox="0 0 25 40" fill="none" xmlns="http://www.w3.org/2000/svg">
<path fill-rule="evenodd" clip-rule="evenodd" d="M1.24993 16.252C1.58143 16.252 1.89935 16.3836 2.13376 16.618C2.36816 16.8525 2.49985 17.1704 2.49985 17.5019V20.0017C2.49985 22.6537 3.55336 25.1971 5.42861 27.0724C7.30386 28.9476 9.84725 30.0011 12.4993 30.0011C15.1513 30.0011 17.6947 28.9476 19.5699 27.0724C21.4452 25.1971 22.4987 22.6537 22.4987 20.0017V17.5019C22.4987 17.1704 22.6304 16.8525 22.8648 16.618C23.0992 16.3836 23.4171 16.252 23.7486 16.252C24.0801 16.252 24.398 16.3836 24.6324 16.618C24.8668 16.8525 24.9985 17.1704 24.9985 17.5019V20.0017C24.9986 23.1004 23.8476 26.0886 21.769 28.3866C19.6904 30.6846 16.8323 32.1286 13.7492 32.4385V37.5007H21.2487C21.5802 37.5007 21.8982 37.6324 22.1326 37.8668C22.367 38.1012 22.4987 38.4191 22.4987 38.7506C22.4987 39.0821 22.367 39.4 22.1326 39.6345C21.8982 39.8689 21.5802 40.0005 21.2487 40.0005H3.74978C3.41828 40.0005 3.10035 39.8689 2.86595 39.6345C2.63154 39.4 2.49985 39.0821 2.49985 38.7506C2.49985 38.4191 2.63154 38.1012 2.86595 37.8668C3.10035 37.6324 3.41828 37.5007 3.74978 37.5007H11.2493V32.4385C8.16623 32.1286 5.30812 30.6846 3.22951 28.3866C1.15089 26.0886 -3.89269e-05 23.1004 9.87457e-10 20.0017V17.5019C9.87457e-10 17.1704 0.131689 16.8525 0.366095 16.618C0.600502 16.3836 0.918425 16.252 1.24993 16.252Z" fill="black"/>
<path fill-rule="evenodd" clip-rule="evenodd" d="M17.4988 19.9988V7.49956C17.4988 6.17355 16.972 4.90186 16.0344 3.96423C15.0968 3.02661 13.8251 2.49985 12.4991 2.49985C11.1731 2.49985 9.90137 3.02661 8.96374 3.96423C8.02612 4.90186 7.49936 6.17355 7.49936 7.49956V19.9988C7.49936 21.3248 8.02612 22.5965 8.96374 23.5341C9.90137 24.4718 11.1731 24.9985 12.4991 24.9985C13.8251 24.9985 15.0968 24.4718 16.0344 23.5341C16.972 22.5965 17.4988 21.3248 17.4988 19.9988ZM12.4991 0C10.5101 0 8.60252 0.79013 7.19608 2.19657C5.78964 3.60301 4.99951 5.51055 4.99951 7.49956V19.9988C4.99951 21.9878 5.78964 23.8954 7.19608 25.3018C8.60252 26.7082 10.5101 27.4984 12.4991 27.4984C14.4881 27.4984 16.3956 26.7082 17.8021 25.3018C19.2085 23.8954 19.9986 21.9878 19.9986 19.9988V7.49956C19.9986 5.51055 19.2085 3.60301 17.8021 2.19657C16.3956 0.79013 14.4881 0 12.4991 0V0Z" fill="black"/>
</svg>
