<svg width="21" height="21" viewBox="0 0 21 21" fill="none" xmlns="http://www.w3.org/2000/svg">
<circle cx="10.055" cy="10.055" r="10.055" fill="#D84315"/>
<path d="M11.4064 9.87648L14.9852 6.29766C15.1491 6.13375 15.1491 5.88787 14.9852 5.72396L14.4115 5.15026C14.2476 4.98634 14.0017 4.98634 13.8378 5.15026L10.2589 8.72907C10.1497 8.83835 9.98576 8.83835 9.87648 8.72907L6.29766 5.12294C6.13375 4.95902 5.88787 4.95902 5.72396 5.12294L5.15026 5.69664C4.98634 5.86056 4.98634 6.10643 5.15026 6.27034L8.72907 9.84916C8.83835 9.95844 8.83835 10.1224 8.72907 10.2316L5.12294 13.8378C4.95902 14.0017 4.95902 14.2476 5.12294 14.4115L5.69664 14.9852C5.86055 15.1491 6.10643 15.1491 6.27034 14.9852L9.87648 11.4064C9.98576 11.2971 10.1497 11.2971 10.2589 11.4064L13.8378 14.9852C14.0017 15.1491 14.2476 15.1491 14.4115 14.9852L14.9852 14.4115C15.1491 14.2476 15.1491 14.0017 14.9852 13.8378L11.4064 10.2589C11.3244 10.1497 11.3244 9.98576 11.4064 9.87648Z" fill="white"/>
</svg>
