<svg width="58" height="58" viewBox="0 0 58 58" fill="none" xmlns="http://www.w3.org/2000/svg">
<rect width="58" height="58" rx="29" fill="#0054A4"/>
<path d="M24.5032 31.8961C22.7009 32.012 21.0654 32.6984 20.1373 35.144C20.0317 35.423 19.7779 35.5923 19.4819 35.5923C18.9828 35.5923 17.4398 34.3493 17 34.0492C17.0004 37.7486 18.7043 41 22.7503 41C26.158 41 28.5002 39.0338 28.5002 35.6008C28.5002 35.4611 28.471 35.3277 28.4567 35.1907L24.5032 31.8961ZM37.5693 18C36.8883 18 36.25 18.3014 35.7631 18.739C26.5807 26.9417 25.6253 27.1344 25.6253 29.549C25.6253 30.1644 25.7713 30.7511 26.0174 31.2874L28.8843 33.6764C29.2082 33.7572 29.5419 33.8125 29.8901 33.8125C32.6801 33.8125 34.2973 31.7699 39.3756 22.2918C39.7071 21.6472 40 20.9509 40 20.2259C40 18.9272 38.8321 18 37.5693 18Z" fill="white"/>
</svg>
