<svg width="68" height="68" viewBox="0 0 68 68" fill="none" xmlns="http://www.w3.org/2000/svg">
<path fill-rule="evenodd" clip-rule="evenodd" d="M0 34C0 15.2223 15.2223 0 34 0C52.7777 0 68 15.2223 68 34C68 52.7777 52.7777 68 34 68C15.2223 68 0 52.7777 0 34ZM37.4 15.3C37.4 13.4222 35.8778 11.9 34 11.9C32.1222 11.9 30.6 13.4222 30.6 15.3V39.1C30.6 40.9778 32.1222 42.5 34 42.5C35.8778 42.5 37.4 40.9778 37.4 39.1V15.3ZM34 49.3C35.8778 49.3 37.4 50.8222 37.4 52.7C37.4 54.5778 35.8778 56.1 34 56.1C32.1222 56.1 30.6 54.5778 30.6 52.7C30.6 50.8222 32.1222 49.3 34 49.3Z" fill="#D84315"/>
</svg>
