<svg width="24" height="22" viewBox="0 0 24 22" fill="none" xmlns="http://www.w3.org/2000/svg">
<path d="M12.2072 0C9.94852 0 7.74056 0.627205 5.86254 1.8023C3.98452 2.9774 2.52078 4.6476 1.65642 6.60172C0.792057 8.55583 0.565902 10.7061 1.00655 12.7806C1.44719 14.855 2.53485 16.7606 4.13198 18.2562C5.72911 19.7518 7.76397 20.7703 9.97925 21.183C12.1945 21.5956 14.4907 21.3838 16.5775 20.5744C18.6642 19.765 20.4478 18.3943 21.7027 16.6356C22.9575 14.877 23.6273 12.8093 23.6273 10.6942C23.6273 7.85794 22.4241 5.13782 20.2824 3.13226C18.1407 1.12671 15.236 0 12.2072 0V0ZM12.921 20.0182V17.3781H11.4934V20.0182C9.09951 19.8556 6.84808 18.8914 5.15086 17.3021C3.45364 15.7127 2.42404 13.6044 2.25031 11.3626H5.06965V10.0258H2.25031C2.42404 7.78405 3.45364 5.67573 5.15086 4.08639C6.84808 2.49704 9.09951 1.53288 11.4934 1.3702V4.01033H12.921V1.3702C15.3149 1.53288 17.5663 2.49704 19.2635 4.08639C20.9608 5.67573 21.9904 7.78405 22.1641 10.0258H19.3448V11.3626H22.1641C21.9904 13.6044 20.9608 15.7127 19.2635 17.3021C17.5663 18.8914 15.3149 19.8556 12.921 20.0182Z" fill="black"/>
<path d="M12.9212 6.01562H11.4937V10.6943C11.4931 10.7823 11.5111 10.8695 11.5466 10.9509C11.5822 11.0324 11.6345 11.1064 11.7007 11.1689L15.2694 14.5108L16.2758 13.5684L12.9212 10.4203V6.01562Z" fill="black"/>
</svg>
