<svg width="17" height="17" viewBox="0 0 17 17" fill="none" xmlns="http://www.w3.org/2000/svg">
<path fill-rule="evenodd" clip-rule="evenodd" d="M4.25 11.9H12.75C15.0972 11.9 17 13.8028 17 16.15C17 16.6194 16.6194 17 16.15 17C15.7141 17 15.3548 16.6719 15.3057 16.2491L15.2957 16.0002C15.221 14.7112 14.1888 13.679 12.8998 13.6043L12.75 13.6H4.25C2.84167 13.6 1.7 14.7417 1.7 16.15C1.7 16.6194 1.31944 17 0.85 17C0.380558 17 0 16.6194 0 16.15C0 13.8646 1.80396 12.0005 4.06564 11.9039L4.25 11.9H12.75H4.25ZM8.5 0C11.3167 0 13.6 2.28335 13.6 5.1C13.6 7.91665 11.3167 10.2 8.5 10.2C5.68335 10.2 3.4 7.91665 3.4 5.1C3.4 2.28335 5.68335 0 8.5 0ZM8.5 1.7C6.62223 1.7 5.1 3.22223 5.1 5.1C5.1 6.97777 6.62223 8.5 8.5 8.5C10.3778 8.5 11.9 6.97777 11.9 5.1C11.9 3.22223 10.3778 1.7 8.5 1.7Z" fill="black"/>
</svg>
