<svg width="24" height="22" viewBox="0 0 24 22" fill="none" xmlns="http://www.w3.org/2000/svg">
<path d="M11.5268 0C9.24703 0 7.01844 0.627205 5.12286 1.8023C3.22729 2.9774 1.74987 4.6476 0.877432 6.60172C0.00499435 8.55583 -0.223275 10.7061 0.22149 12.7806C0.666254 14.855 1.76408 16.7606 3.37613 18.2562C4.98818 19.7518 7.04207 20.7703 9.27805 21.183C11.514 21.5956 13.8317 21.3838 15.9379 20.5744C18.0442 19.765 19.8444 18.3943 21.111 16.6356C22.3776 14.877 23.0536 12.8093 23.0536 10.6942C23.0536 7.85794 21.8392 5.13782 19.6775 3.13226C17.5158 1.12671 14.5839 0 11.5268 0V0ZM12.2472 20.0182V17.3781H10.8064V20.0182C8.39008 19.8556 6.11762 18.8914 4.40454 17.3021C2.69145 15.7127 1.65222 13.6044 1.47688 11.3626H4.32256V10.0258H1.47688C1.65222 7.78405 2.69145 5.67573 4.40454 4.08639C6.11762 2.49704 8.39008 1.53288 10.8064 1.3702V4.01033H12.2472V1.3702C14.6636 1.53288 16.936 2.49704 18.6491 4.08639C20.3622 5.67573 21.4014 7.78405 21.5768 10.0258H18.7311V11.3626H21.5768C21.4014 13.6044 20.3622 15.7127 18.6491 17.3021C16.936 18.8914 14.6636 19.8556 12.2472 20.0182Z" fill="black"/>
<path d="M12.2473 6.01538H10.8064V10.6941C10.8059 10.7821 10.824 10.8693 10.8599 10.9507C10.8957 11.0321 10.9486 11.1062 11.0153 11.1687L14.6175 14.5106L15.6333 13.5682L12.2473 10.4201V6.01538Z" fill="black"/>
</svg>
