<svg width="36" height="36" viewBox="0 0 36 36" fill="none" xmlns="http://www.w3.org/2000/svg">
<path d="M11.3684 0H24.6316C30.9102 0 36 5.08982 36 11.3684V24.6316C36 30.9102 30.9102 36 24.6316 36H11.3684C5.08982 36 0 30.9102 0 24.6316V11.3684C0 5.08982 5.08982 0 11.3684 0Z" fill="#E4DFFF"/>
<path fill-rule="evenodd" clip-rule="evenodd" d="M17.1561 17.156V11.7606C17.1561 11.0644 17.7205 10.5 18.4167 10.5C19.1129 10.5 19.6773 11.0644 19.6773 11.7606V17.156H25.0727C25.7689 17.156 26.3333 17.7204 26.3333 18.4167C26.3333 19.1129 25.7689 19.6773 25.0727 19.6773H19.6773V25.0727C19.6773 25.7689 19.1129 26.3333 18.4167 26.3333C17.7205 26.3333 17.1561 25.7689 17.1561 25.0727V19.6773H11.7606C11.0644 19.6773 10.5 19.1129 10.5 18.4167C10.5 17.7204 11.0644 17.156 11.7606 17.156H17.1561Z" fill="#7265E3"/>
</svg>
