<svg width="39" height="54" viewBox="0 0 39 54" fill="none" xmlns="http://www.w3.org/2000/svg">
<path d="M34.125 6.75H26C26 3.02695 23.0852 0 19.5 0C15.9148 0 13 3.02695 13 6.75H4.875C2.18359 6.75 0 9.01758 0 11.8125V48.9375C0 51.7324 2.18359 54 4.875 54H34.125C36.8164 54 39 51.7324 39 48.9375V11.8125C39 9.01758 36.8164 6.75 34.125 6.75ZM9.75 44.7188C8.39922 44.7188 7.3125 43.5902 7.3125 42.1875C7.3125 40.7848 8.39922 39.6562 9.75 39.6562C11.1008 39.6562 12.1875 40.7848 12.1875 42.1875C12.1875 43.5902 11.1008 44.7188 9.75 44.7188ZM9.75 34.5938C8.39922 34.5938 7.3125 33.4652 7.3125 32.0625C7.3125 30.6598 8.39922 29.5312 9.75 29.5312C11.1008 29.5312 12.1875 30.6598 12.1875 32.0625C12.1875 33.4652 11.1008 34.5938 9.75 34.5938ZM9.75 24.4688C8.39922 24.4688 7.3125 23.3402 7.3125 21.9375C7.3125 20.5348 8.39922 19.4062 9.75 19.4062C11.1008 19.4062 12.1875 20.5348 12.1875 21.9375C12.1875 23.3402 11.1008 24.4688 9.75 24.4688ZM19.5 4.21875C20.8508 4.21875 21.9375 5.34727 21.9375 6.75C21.9375 8.15273 20.8508 9.28125 19.5 9.28125C18.1492 9.28125 17.0625 8.15273 17.0625 6.75C17.0625 5.34727 18.1492 4.21875 19.5 4.21875ZM32.5 43.0312C32.5 43.4953 32.1344 43.875 31.6875 43.875H17.0625C16.6156 43.875 16.25 43.4953 16.25 43.0312V41.3438C16.25 40.8797 16.6156 40.5 17.0625 40.5H31.6875C32.1344 40.5 32.5 40.8797 32.5 41.3438V43.0312ZM32.5 32.9062C32.5 33.3703 32.1344 33.75 31.6875 33.75H17.0625C16.6156 33.75 16.25 33.3703 16.25 32.9062V31.2188C16.25 30.7547 16.6156 30.375 17.0625 30.375H31.6875C32.1344 30.375 32.5 30.7547 32.5 31.2188V32.9062ZM32.5 22.7812C32.5 23.2453 32.1344 23.625 31.6875 23.625H17.0625C16.6156 23.625 16.25 23.2453 16.25 22.7812V21.0938C16.25 20.6297 16.6156 20.25 17.0625 20.25H31.6875C32.1344 20.25 32.5 20.6297 32.5 21.0938V22.7812Z" fill="#0054A4"/>
</svg>
