<svg width="19" height="19" viewBox="0 0 19 19" fill="none" xmlns="http://www.w3.org/2000/svg">
<path d="M8.5482 13.9521L14.8987 7.60165L13.6376 6.34056L8.5482 11.43L5.98098 8.86274L4.71989 10.1238L8.5482 13.9521ZM9.80929 18.8163C8.56321 18.8163 7.3922 18.5797 6.29625 18.1065C5.20031 17.6339 4.24699 16.9923 3.43629 16.1816C2.62559 15.3709 1.98393 14.4175 1.51133 13.3216C1.03812 12.2256 0.801514 11.0546 0.801514 9.80855C0.801514 8.56248 1.03812 7.39147 1.51133 6.29552C1.98393 5.19958 2.62559 4.24625 3.43629 3.43555C4.24699 2.62486 5.20031 1.9829 6.29625 1.50969C7.3922 1.03709 8.56321 0.800781 9.80929 0.800781C11.0554 0.800781 12.2264 1.03709 13.3223 1.50969C14.4183 1.9829 15.3716 2.62486 16.1823 3.43555C16.993 4.24625 17.6346 5.19958 18.1072 6.29552C18.5805 7.39147 18.8171 8.56248 18.8171 9.80855C18.8171 11.0546 18.5805 12.2256 18.1072 13.3216C17.6346 14.4175 16.993 15.3709 16.1823 16.1816C15.3716 16.9923 14.4183 17.6339 13.3223 18.1065C12.2264 18.5797 11.0554 18.8163 9.80929 18.8163ZM9.80929 17.0148C11.821 17.0148 13.525 16.3167 14.9212 14.9205C16.3174 13.5243 17.0155 11.8203 17.0155 9.80855C17.0155 7.79682 16.3174 6.09285 14.9212 4.69664C13.525 3.30044 11.821 2.60234 9.80929 2.60234C7.79755 2.60234 6.09358 3.30044 4.69737 4.69664C3.30117 6.09285 2.60307 7.79682 2.60307 9.80855C2.60307 11.8203 3.30117 13.5243 4.69737 14.9205C6.09358 16.3167 7.79755 17.0148 9.80929 17.0148Z" fill="#4CAF50"/>
</svg>
