<svg width="13" height="14" viewBox="0 0 13 14" fill="none" xmlns="http://www.w3.org/2000/svg">
<path d="M12.5357 0.875004H9.05357L8.7808 0.363677C8.72302 0.25436 8.63402 0.162405 8.5238 0.0981575C8.41358 0.0339095 8.28652 -8.27959e-05 8.15692 4.7941e-06H4.84018C4.71087 -0.000463619 4.58403 0.0334019 4.47421 0.0977214C4.36438 0.162041 4.276 0.254213 4.2192 0.363677L3.94643 0.875004H0.464286C0.341149 0.875004 0.223057 0.921098 0.135986 1.00315C0.0489157 1.08519 0 1.19647 0 1.3125L0 2.1875C0 2.30354 0.0489157 2.41482 0.135986 2.49686C0.223057 2.57891 0.341149 2.625 0.464286 2.625H12.5357C12.6588 2.625 12.7769 2.57891 12.864 2.49686C12.9511 2.41482 13 2.30354 13 2.1875V1.3125C13 1.19647 12.9511 1.08519 12.864 1.00315C12.7769 0.921098 12.6588 0.875004 12.5357 0.875004ZM1.54375 12.7695C1.56589 13.1027 1.72197 13.4155 1.98019 13.6441C2.23842 13.8727 2.5794 14 2.93371 14H10.0663C10.4206 14 10.7616 13.8727 11.0198 13.6441C11.278 13.4155 11.4341 13.1027 11.4562 12.7695L12.0714 3.5H0.928571L1.54375 12.7695Z" fill="#D84315"/>
</svg>
