<svg width="28" height="26" viewBox="0 0 28 26" fill="none" xmlns="http://www.w3.org/2000/svg">
<path d="M10.0999 11.4C12.9718 11.4 15.2999 9.07188 15.2999 6.2C15.2999 3.32812 12.9718 1 10.0999 1C7.22802 1 4.8999 3.32812 4.8999 6.2C4.8999 9.07188 7.22802 11.4 10.0999 11.4Z" stroke="black" stroke-width="2" stroke-linecap="round" stroke-linejoin="round"/>
<path d="M1 24.3996V19.1996C1 17.7636 2.16406 16.5996 3.6 16.5996H16.6C18.036 16.5996 19.2 17.7636 19.2 19.1996V24.3996" stroke="black" stroke-width="2" stroke-linecap="round" stroke-linejoin="round"/>
<path d="M19.1997 1C20.3182 1.28639 21.3096 1.93691 22.0176 2.849C22.7256 3.7611 23.1098 4.88288 23.1098 6.0375C23.1098 7.19212 22.7256 8.3139 22.0176 9.226C21.3096 10.1381 20.3182 10.7886 19.1997 11.075" stroke="black" stroke-width="2" stroke-linecap="round" stroke-linejoin="round"/>
<path d="M23.1001 16.5996H24.4001C25.8361 16.5996 27.0001 17.7636 27.0001 19.1996V24.3996" stroke="black" stroke-width="2" stroke-linecap="round" stroke-linejoin="round"/>
</svg>
