<svg width="22" height="19" viewBox="0 0 22 19" fill="none" xmlns="http://www.w3.org/2000/svg">
<path fill-rule="evenodd" clip-rule="evenodd" d="M9.36622 0.489361C9.73442 0.173586 10.2035 0 10.6885 0C11.1736 0 11.6426 0.173586 12.0108 0.489361L18.4457 6.00406L20.9715 8.0251C21.0756 8.10846 21.1624 8.21152 21.2267 8.32839C21.291 8.44526 21.3317 8.57366 21.3464 8.70626C21.3611 8.83885 21.3496 8.97305 21.3124 9.10118C21.2753 9.22931 21.2133 9.34887 21.1299 9.45304C21.0465 9.5572 20.9435 9.64392 20.8266 9.70826C20.7097 9.77259 20.5813 9.81327 20.4488 9.82799C20.3162 9.8427 20.182 9.83115 20.0538 9.794C19.9257 9.75685 19.8061 9.69483 19.702 9.61147L18.8133 8.90055V16.9431C18.8133 17.4818 18.5993 17.9984 18.2184 18.3793C17.8375 18.7603 17.3208 18.9743 16.7821 18.9743H12.7197V13.8963C12.7197 13.3576 12.5057 12.8409 12.1248 12.46C11.7439 12.0791 11.2272 11.8651 10.6885 11.8651C10.1498 11.8651 9.63318 12.0791 9.25226 12.46C8.87134 12.8409 8.65734 13.3576 8.65734 13.8963V18.9743H4.59494C4.05623 18.9743 3.53959 18.7603 3.15867 18.3793C2.77774 17.9984 2.56374 17.4818 2.56374 16.9431V8.89953L1.6751 9.61045C1.57164 9.69879 1.45149 9.76545 1.32178 9.80646C1.19207 9.84747 1.05544 9.86201 0.920009 9.84921C0.784573 9.8364 0.653091 9.79652 0.533365 9.73192C0.413639 9.66733 0.308111 9.57934 0.223045 9.47318C0.137979 9.36701 0.0751084 9.24484 0.0381652 9.11391C0.00122205 8.98299 -0.00904057 8.84597 0.0079864 8.711C0.0250134 8.57603 0.0689829 8.44586 0.137285 8.32821C0.205587 8.21056 0.29683 8.10783 0.405597 8.02612L2.93139 6.00508L9.36622 0.489361Z" fill="#1357A6"/>
</svg>
