<svg width="23" height="23" viewBox="0 0 23 23" fill="none" xmlns="http://www.w3.org/2000/svg">
<path d="M16.2917 4.6C16.1858 4.6 16.1 4.68581 16.1 4.79167V6.70833C16.1 6.81419 16.1858 6.9 16.2917 6.9H18.2083C18.3142 6.9 18.4 6.81419 18.4 6.70833V4.79167C18.4 4.68581 18.3142 4.6 18.2083 4.6H16.2917ZM16.1 18.4V17.825C16.1 17.5074 16.3574 17.25 16.675 17.25C16.9926 17.25 17.25 17.5074 17.25 17.825V18.4H18.4V17.825C18.4 17.5074 18.6574 17.25 18.975 17.25C19.2926 17.25 19.55 17.5074 19.55 17.825V18.975C19.55 19.2926 19.2926 19.55 18.975 19.55H14.375C14.0574 19.55 13.8 19.2926 13.8 18.975V17.825C13.8 17.5074 14.0574 17.25 14.375 17.25C14.6926 17.25 14.95 17.5074 14.95 17.825V18.4H16.1ZM12.65 10.35H13.225C13.5426 10.35 13.8 10.6074 13.8 10.925C13.8 11.2426 13.5426 11.5 13.225 11.5H10.925C10.6074 11.5 10.35 11.2426 10.35 10.925C10.35 10.6074 10.6074 10.35 10.925 10.35H11.5V9.2H9.775C9.45744 9.2 9.2 8.94256 9.2 8.625C9.2 8.30744 9.45744 8.05 9.775 8.05H13.225C13.5426 8.05 13.8 8.30744 13.8 8.625C13.8 8.94256 13.5426 9.2 13.225 9.2H12.65V10.35ZM18.4 11.5H17.825C17.5074 11.5 17.25 11.2426 17.25 10.925C17.25 10.6074 17.5074 10.35 17.825 10.35H18.4V9.775C18.4 9.45744 18.6574 9.2 18.975 9.2C19.2926 9.2 19.55 9.45744 19.55 9.775V12.075C19.55 12.3926 19.2926 12.65 18.975 12.65C18.6574 12.65 18.4 12.3926 18.4 12.075V11.5ZM12.65 13.8H12.075C11.7574 13.8 11.5 13.5426 11.5 13.225C11.5 12.9074 11.7574 12.65 12.075 12.65H13.225C13.5426 12.65 13.8 12.9074 13.8 13.225V15.525C13.8 15.8426 13.5426 16.1 13.225 16.1H9.775C9.45744 16.1 9.2 15.8426 9.2 15.525C9.2 15.2074 9.45744 14.95 9.775 14.95H12.65V13.8ZM16.2917 3.45H18.2083C18.9493 3.45 19.55 4.05068 19.55 4.79167V6.70833C19.55 7.44932 18.9493 8.05 18.2083 8.05H16.2917C15.5507 8.05 14.95 7.44932 14.95 6.70833V4.79167C14.95 4.05068 15.5507 3.45 16.2917 3.45ZM4.79167 3.45H6.70833C7.44932 3.45 8.05 4.05068 8.05 4.79167V6.70833C8.05 7.44932 7.44932 8.05 6.70833 8.05H4.79167C4.05068 8.05 3.45 7.44932 3.45 6.70833V4.79167C3.45 4.05068 4.05068 3.45 4.79167 3.45ZM4.79167 4.6C4.68581 4.6 4.6 4.68581 4.6 4.79167V6.70833C4.6 6.81419 4.68581 6.9 4.79167 6.9H6.70833C6.81419 6.9 6.9 6.81419 6.9 6.70833V4.79167C6.9 4.68581 6.81419 4.6 6.70833 4.6H4.79167ZM4.79167 14.95H6.70833C7.44932 14.95 8.05 15.5507 8.05 16.2917V18.2083C8.05 18.9493 7.44932 19.55 6.70833 19.55H4.79167C4.05068 19.55 3.45 18.9493 3.45 18.2083V16.2917C3.45 15.5507 4.05068 14.95 4.79167 14.95ZM4.79167 16.1C4.68581 16.1 4.6 16.1858 4.6 16.2917V18.2083C4.6 18.3142 4.68581 18.4 4.79167 18.4H6.70833C6.81419 18.4 6.9 18.3142 6.9 18.2083V16.2917C6.9 16.1858 6.81419 16.1 6.70833 16.1H4.79167ZM12.65 4.6H9.775C9.45744 4.6 9.2 4.34256 9.2 4.025C9.2 3.70744 9.45744 3.45 9.775 3.45H13.225C13.5426 3.45 13.8 3.70744 13.8 4.025V6.325C13.8 6.64256 13.5426 6.9 13.225 6.9C12.9074 6.9 12.65 6.64256 12.65 6.325V4.6ZM9.775 6.9C9.45744 6.9 9.2 6.64256 9.2 6.325C9.2 6.00744 9.45744 5.75 9.775 5.75H10.925C11.2426 5.75 11.5 6.00744 11.5 6.325C11.5 6.64256 11.2426 6.9 10.925 6.9H9.775ZM4.025 13.8C3.70744 13.8 3.45 13.5426 3.45 13.225C3.45 12.9074 3.70744 12.65 4.025 12.65H6.325C6.64256 12.65 6.9 12.9074 6.9 13.225C6.9 13.5426 6.64256 13.8 6.325 13.8H4.025ZM8.625 13.8C8.30744 13.8 8.05 13.5426 8.05 13.225C8.05 12.9074 8.30744 12.65 8.625 12.65H9.775C10.0926 12.65 10.35 12.9074 10.35 13.225C10.35 13.5426 10.0926 13.8 9.775 13.8H8.625ZM10.35 18.4V18.975C10.35 19.2926 10.0926 19.55 9.775 19.55C9.45744 19.55 9.2 19.2926 9.2 18.975V17.825C9.2 17.5074 9.45744 17.25 9.775 17.25H12.075C12.3926 17.25 12.65 17.5074 12.65 17.825C12.65 18.1426 12.3926 18.4 12.075 18.4H10.35ZM8.05 10.35H8.625C8.94256 10.35 9.2 10.6074 9.2 10.925C9.2 11.2426 8.94256 11.5 8.625 11.5H7.475C7.15744 11.5 6.9 11.2426 6.9 10.925V10.35H6.325C6.00744 10.35 5.75 10.0926 5.75 9.775C5.75 9.45744 6.00744 9.2 6.325 9.2H7.475C7.79256 9.2 8.05 9.45744 8.05 9.775V10.35ZM3.45 9.775C3.45 9.45744 3.70744 9.2 4.025 9.2C4.34256 9.2 4.6 9.45744 4.6 9.775V10.925C4.6 11.2426 4.34256 11.5 4.025 11.5C3.70744 11.5 3.45 11.2426 3.45 10.925V9.775ZM14.95 9.775C14.95 9.45744 15.2074 9.2 15.525 9.2C15.8426 9.2 16.1 9.45744 16.1 9.775V12.075C16.1 12.3926 15.8426 12.65 15.525 12.65C15.2074 12.65 14.95 12.3926 14.95 12.075V9.775ZM17.25 14.95V14.375C17.25 14.0574 17.5074 13.8 17.825 13.8H18.975C19.2926 13.8 19.55 14.0574 19.55 14.375C19.55 14.6926 19.2926 14.95 18.975 14.95H18.4V15.525C18.4 15.8426 18.1426 16.1 17.825 16.1H15.525C15.2074 16.1 14.95 15.8426 14.95 15.525V14.375C14.95 14.0574 15.2074 13.8 15.525 13.8C15.8426 13.8 16.1 14.0574 16.1 14.375V14.95H17.25ZM1.15 5.175C1.15 5.49256 0.892564 5.75 0.575 5.75C0.257436 5.75 0 5.49256 0 5.175V2.875C0 1.28718 1.28718 0 2.875 0H5.175C5.49256 0 5.75 0.257436 5.75 0.575C5.75 0.892564 5.49256 1.15 5.175 1.15H2.875C1.92231 1.15 1.15 1.92231 1.15 2.875V5.175ZM17.825 1.15C17.5074 1.15 17.25 0.892564 17.25 0.575C17.25 0.257436 17.5074 0 17.825 0H20.125C21.7128 0 23 1.28718 23 2.875V5.175C23 5.49256 22.7426 5.75 22.425 5.75C22.1074 5.75 21.85 5.49256 21.85 5.175V2.875C21.85 1.92231 21.0777 1.15 20.125 1.15H17.825ZM5.175 21.85C5.49256 21.85 5.75 22.1074 5.75 22.425C5.75 22.7426 5.49256 23 5.175 23H2.875C1.28718 23 0 21.7128 0 20.125V17.825C0 17.5074 0.257436 17.25 0.575 17.25C0.892564 17.25 1.15 17.5074 1.15 17.825V20.125C1.15 21.0777 1.92231 21.85 2.875 21.85H5.175ZM21.85 17.825C21.85 17.5074 22.1074 17.25 22.425 17.25C22.7426 17.25 23 17.5074 23 17.825V20.125C23 21.7128 21.7128 23 20.125 23H17.825C17.5074 23 17.25 22.7426 17.25 22.425C17.25 22.1074 17.5074 21.85 17.825 21.85H20.125C21.0777 21.85 21.85 21.0777 21.85 20.125V17.825Z" fill="#E99D2B"/>
</svg>
