<svg width="68" height="69" viewBox="0 0 68 69" fill="none" xmlns="http://www.w3.org/2000/svg">
<path d="M34 68.387C24.9826 68.387 16.3346 64.8048 9.95837 58.4286C3.58213 52.0524 0 43.4043 0 34.387C0 25.3696 3.58213 16.7216 9.95837 10.3453C16.3346 3.9691 24.9826 0.386963 34 0.386963C43.0174 0.386963 51.6654 3.9691 58.0416 10.3453C64.4179 16.7216 68 25.3696 68 34.387C68 43.4043 64.4179 52.0524 58.0416 58.4286C51.6654 64.8048 43.0174 68.387 34 68.387ZM40.8 24.187C40.8 25.139 40.086 26.907 39.372 27.587L34 32.959C32.062 34.931 30.6 38.399 30.6 41.187V44.587H37.4V41.187C37.4 40.201 38.114 38.467 38.828 37.787L44.2 32.415C46.138 30.443 47.6 26.975 47.6 24.187C47.6 20.58 46.1671 17.1208 43.6167 14.5703C41.0662 12.0198 37.6069 10.587 34 10.587C30.3931 10.587 26.9338 12.0198 24.3833 14.5703C21.8329 17.1208 20.4 20.58 20.4 24.187H27.2C27.2 22.3835 27.9164 20.6539 29.1917 19.3786C30.4669 18.1034 32.1965 17.387 34 17.387C35.8035 17.387 37.5331 18.1034 38.8083 19.3786C40.0836 20.6539 40.8 22.3835 40.8 24.187ZM30.6 51.387V58.187H37.4V51.387H30.6Z" fill="#4CAF50"/>
</svg>
