<svg width="58" height="58" viewBox="0 0 58 58" fill="none" xmlns="http://www.w3.org/2000/svg">
<rect width="58" height="58" rx="29" fill="#0054A4"/>
<path d="M37.125 18.625H32.3333C32.3333 16.6256 30.6143 15 28.5 15C26.3857 15 24.6667 16.6256 24.6667 18.625H19.875C18.2878 18.625 17 19.8428 17 21.3438V41.2812C17 42.7822 18.2878 44 19.875 44H37.125C38.7122 44 40 42.7822 40 41.2812V21.3438C40 19.8428 38.7122 18.625 37.125 18.625ZM22.75 39.0156C21.9534 39.0156 21.3125 38.4096 21.3125 37.6562C21.3125 36.9029 21.9534 36.2969 22.75 36.2969C23.5466 36.2969 24.1875 36.9029 24.1875 37.6562C24.1875 38.4096 23.5466 39.0156 22.75 39.0156ZM22.75 33.5781C21.9534 33.5781 21.3125 32.9721 21.3125 32.2188C21.3125 31.4654 21.9534 30.8594 22.75 30.8594C23.5466 30.8594 24.1875 31.4654 24.1875 32.2188C24.1875 32.9721 23.5466 33.5781 22.75 33.5781ZM22.75 28.1406C21.9534 28.1406 21.3125 27.5346 21.3125 26.7812C21.3125 26.0279 21.9534 25.4219 22.75 25.4219C23.5466 25.4219 24.1875 26.0279 24.1875 26.7812C24.1875 27.5346 23.5466 28.1406 22.75 28.1406ZM28.5 17.2656C29.2966 17.2656 29.9375 17.8717 29.9375 18.625C29.9375 19.3783 29.2966 19.9844 28.5 19.9844C27.7034 19.9844 27.0625 19.3783 27.0625 18.625C27.0625 17.8717 27.7034 17.2656 28.5 17.2656ZM36.1667 38.1094C36.1667 38.3586 35.951 38.5625 35.6875 38.5625H27.0625C26.799 38.5625 26.5833 38.3586 26.5833 38.1094V37.2031C26.5833 36.9539 26.799 36.75 27.0625 36.75H35.6875C35.951 36.75 36.1667 36.9539 36.1667 37.2031V38.1094ZM36.1667 32.6719C36.1667 32.9211 35.951 33.125 35.6875 33.125H27.0625C26.799 33.125 26.5833 32.9211 26.5833 32.6719V31.7656C26.5833 31.5164 26.799 31.3125 27.0625 31.3125H35.6875C35.951 31.3125 36.1667 31.5164 36.1667 31.7656V32.6719ZM36.1667 27.2344C36.1667 27.4836 35.951 27.6875 35.6875 27.6875H27.0625C26.799 27.6875 26.5833 27.4836 26.5833 27.2344V26.3281C26.5833 26.0789 26.799 25.875 27.0625 25.875H35.6875C35.951 25.875 36.1667 26.0789 36.1667 26.3281V27.2344Z" fill="white"/>
</svg>
