<svg width="27" height="27" viewBox="0 0 27 27" fill="none" xmlns="http://www.w3.org/2000/svg">
<path d="M19.125 5.4C19.0007 5.4 18.9 5.50074 18.9 5.625V7.875C18.9 7.99926 19.0007 8.1 19.125 8.1H21.375C21.4993 8.1 21.6 7.99926 21.6 7.875V5.625C21.6 5.50074 21.4993 5.4 21.375 5.4H19.125ZM18.9 21.6V20.925C18.9 20.5522 19.2022 20.25 19.575 20.25C19.9478 20.25 20.25 20.5522 20.25 20.925V21.6H21.6V20.925C21.6 20.5522 21.9022 20.25 22.275 20.25C22.6478 20.25 22.95 20.5522 22.95 20.925V22.275C22.95 22.6478 22.6478 22.95 22.275 22.95H16.875C16.5022 22.95 16.2 22.6478 16.2 22.275V20.925C16.2 20.5522 16.5022 20.25 16.875 20.25C17.2478 20.25 17.55 20.5522 17.55 20.925V21.6H18.9ZM14.85 12.15H15.525C15.8978 12.15 16.2 12.4522 16.2 12.825C16.2 13.1978 15.8978 13.5 15.525 13.5H12.825C12.4522 13.5 12.15 13.1978 12.15 12.825C12.15 12.4522 12.4522 12.15 12.825 12.15H13.5V10.8H11.475C11.1022 10.8 10.8 10.4978 10.8 10.125C10.8 9.75221 11.1022 9.45 11.475 9.45H15.525C15.8978 9.45 16.2 9.75221 16.2 10.125C16.2 10.4978 15.8978 10.8 15.525 10.8H14.85V12.15ZM21.6 13.5H20.925C20.5522 13.5 20.25 13.1978 20.25 12.825C20.25 12.4522 20.5522 12.15 20.925 12.15H21.6V11.475C21.6 11.1022 21.9022 10.8 22.275 10.8C22.6478 10.8 22.95 11.1022 22.95 11.475V14.175C22.95 14.5478 22.6478 14.85 22.275 14.85C21.9022 14.85 21.6 14.5478 21.6 14.175V13.5ZM14.85 16.2H14.175C13.8022 16.2 13.5 15.8978 13.5 15.525C13.5 15.1522 13.8022 14.85 14.175 14.85H15.525C15.8978 14.85 16.2 15.1522 16.2 15.525V18.225C16.2 18.5978 15.8978 18.9 15.525 18.9H11.475C11.1022 18.9 10.8 18.5978 10.8 18.225C10.8 17.8522 11.1022 17.55 11.475 17.55H14.85V16.2ZM19.125 4.05H21.375C22.2449 4.05 22.95 4.75515 22.95 5.625V7.875C22.95 8.74485 22.2449 9.45 21.375 9.45H19.125C18.2552 9.45 17.55 8.74485 17.55 7.875V5.625C17.55 4.75515 18.2552 4.05 19.125 4.05ZM5.625 4.05H7.875C8.74485 4.05 9.45 4.75515 9.45 5.625V7.875C9.45 8.74485 8.74485 9.45 7.875 9.45H5.625C4.75515 9.45 4.05 8.74485 4.05 7.875V5.625C4.05 4.75515 4.75515 4.05 5.625 4.05ZM5.625 5.4C5.50074 5.4 5.4 5.50074 5.4 5.625V7.875C5.4 7.99926 5.50074 8.1 5.625 8.1H7.875C7.99926 8.1 8.1 7.99926 8.1 7.875V5.625C8.1 5.50074 7.99926 5.4 7.875 5.4H5.625ZM5.625 17.55H7.875C8.74485 17.55 9.45 18.2552 9.45 19.125V21.375C9.45 22.2449 8.74485 22.95 7.875 22.95H5.625C4.75515 22.95 4.05 22.2449 4.05 21.375V19.125C4.05 18.2552 4.75515 17.55 5.625 17.55ZM5.625 18.9C5.50074 18.9 5.4 19.0007 5.4 19.125V21.375C5.4 21.4993 5.50074 21.6 5.625 21.6H7.875C7.99926 21.6 8.1 21.4993 8.1 21.375V19.125C8.1 19.0007 7.99926 18.9 7.875 18.9H5.625ZM14.85 5.4H11.475C11.1022 5.4 10.8 5.09779 10.8 4.725C10.8 4.35221 11.1022 4.05 11.475 4.05H15.525C15.8978 4.05 16.2 4.35221 16.2 4.725V7.425C16.2 7.79779 15.8978 8.1 15.525 8.1C15.1522 8.1 14.85 7.79779 14.85 7.425V5.4ZM11.475 8.1C11.1022 8.1 10.8 7.79779 10.8 7.425C10.8 7.05221 11.1022 6.75 11.475 6.75H12.825C13.1978 6.75 13.5 7.05221 13.5 7.425C13.5 7.79779 13.1978 8.1 12.825 8.1H11.475ZM4.725 16.2C4.35221 16.2 4.05 15.8978 4.05 15.525C4.05 15.1522 4.35221 14.85 4.725 14.85H7.425C7.79779 14.85 8.1 15.1522 8.1 15.525C8.1 15.8978 7.79779 16.2 7.425 16.2H4.725ZM10.125 16.2C9.75221 16.2 9.45 15.8978 9.45 15.525C9.45 15.1522 9.75221 14.85 10.125 14.85H11.475C11.8478 14.85 12.15 15.1522 12.15 15.525C12.15 15.8978 11.8478 16.2 11.475 16.2H10.125ZM12.15 21.6V22.275C12.15 22.6478 11.8478 22.95 11.475 22.95C11.1022 22.95 10.8 22.6478 10.8 22.275V20.925C10.8 20.5522 11.1022 20.25 11.475 20.25H14.175C14.5478 20.25 14.85 20.5522 14.85 20.925C14.85 21.2978 14.5478 21.6 14.175 21.6H12.15ZM9.45 12.15H10.125C10.4978 12.15 10.8 12.4522 10.8 12.825C10.8 13.1978 10.4978 13.5 10.125 13.5H8.775C8.40221 13.5 8.1 13.1978 8.1 12.825V12.15H7.425C7.05221 12.15 6.75 11.8478 6.75 11.475C6.75 11.1022 7.05221 10.8 7.425 10.8H8.775C9.14779 10.8 9.45 11.1022 9.45 11.475V12.15ZM4.05 11.475C4.05 11.1022 4.35221 10.8 4.725 10.8C5.09779 10.8 5.4 11.1022 5.4 11.475V12.825C5.4 13.1978 5.09779 13.5 4.725 13.5C4.35221 13.5 4.05 13.1978 4.05 12.825V11.475ZM17.55 11.475C17.55 11.1022 17.8522 10.8 18.225 10.8C18.5978 10.8 18.9 11.1022 18.9 11.475V14.175C18.9 14.5478 18.5978 14.85 18.225 14.85C17.8522 14.85 17.55 14.5478 17.55 14.175V11.475ZM20.25 17.55V16.875C20.25 16.5022 20.5522 16.2 20.925 16.2H22.275C22.6478 16.2 22.95 16.5022 22.95 16.875C22.95 17.2478 22.6478 17.55 22.275 17.55H21.6V18.225C21.6 18.5978 21.2978 18.9 20.925 18.9H18.225C17.8522 18.9 17.55 18.5978 17.55 18.225V16.875C17.55 16.5022 17.8522 16.2 18.225 16.2C18.5978 16.2 18.9 16.5022 18.9 16.875V17.55H20.25ZM1.35 6.075C1.35 6.44779 1.04779 6.75 0.675 6.75C0.302208 6.75 0 6.44779 0 6.075V3.375C0 1.51104 1.51104 0 3.375 0H6.075C6.44779 0 6.75 0.302208 6.75 0.675C6.75 1.04779 6.44779 1.35 6.075 1.35H3.375C2.25662 1.35 1.35 2.25662 1.35 3.375V6.075ZM20.925 1.35C20.5522 1.35 20.25 1.04779 20.25 0.675C20.25 0.302208 20.5522 0 20.925 0H23.625C25.489 0 27 1.51104 27 3.375V6.075C27 6.44779 26.6978 6.75 26.325 6.75C25.9522 6.75 25.65 6.44779 25.65 6.075V3.375C25.65 2.25662 24.7434 1.35 23.625 1.35H20.925ZM6.075 25.65C6.44779 25.65 6.75 25.9522 6.75 26.325C6.75 26.6978 6.44779 27 6.075 27H3.375C1.51104 27 0 25.489 0 23.625V20.925C0 20.5522 0.302208 20.25 0.675 20.25C1.04779 20.25 1.35 20.5522 1.35 20.925V23.625C1.35 24.7434 2.25662 25.65 3.375 25.65H6.075ZM25.65 20.925C25.65 20.5522 25.9522 20.25 26.325 20.25C26.6978 20.25 27 20.5522 27 20.925V23.625C27 25.489 25.489 27 23.625 27H20.925C20.5522 27 20.25 26.6978 20.25 26.325C20.25 25.9522 20.5522 25.65 20.925 25.65H23.625C24.7434 25.65 25.65 24.7434 25.65 23.625V20.925Z" fill="#0054A4"/>
</svg>
