<svg width="15" height="15" viewBox="0 0 15 15" fill="none" xmlns="http://www.w3.org/2000/svg">
<path d="M7.5 0C3.35685 0 0 3.35685 0 7.5C0 11.6431 3.35685 15 7.5 15C11.6431 15 15 11.6431 15 7.5C15 3.35685 11.6431 0 7.5 0ZM9.22681 10.5877L6.55948 8.64919C6.46573 8.57964 6.41129 8.47077 6.41129 8.35585V3.26613C6.41129 3.06653 6.5746 2.90323 6.77419 2.90323H8.22581C8.4254 2.90323 8.58871 3.06653 8.58871 3.26613V7.43044L10.5091 8.82762C10.6724 8.94556 10.7056 9.17238 10.5877 9.33569L9.73488 10.5091C9.61693 10.6694 9.39012 10.7056 9.22681 10.5877Z" fill="#999798"/>
</svg>
