<svg width="17" height="13" viewBox="0 0 17 13" fill="none" xmlns="http://www.w3.org/2000/svg">
<path fill-rule="evenodd" clip-rule="evenodd" d="M5.06697 2.01559C5.11716 1.94582 5.1729 1.86041 5.24397 1.74524C5.2838 1.6807 5.42913 1.44031 5.45288 1.40146C6.04011 0.440884 6.46698 0 7.23671 0H10.0702C10.8399 0 11.2668 0.440884 11.854 1.40146C11.8778 1.44031 12.0231 1.6807 12.0629 1.74524C12.134 1.86041 12.1898 1.94582 12.24 2.01559C12.273 2.06161 12.302 2.09817 12.3255 2.12513H14.3205C15.4941 2.12513 16.4456 3.07658 16.4456 4.25025V10.6256C16.4456 11.7993 15.4941 12.7508 14.3205 12.7508H2.98646C1.81278 12.7508 0.861328 11.7993 0.861328 10.6256V4.25025C0.861328 3.07658 1.81278 2.12513 2.98646 2.12513H4.98138C5.00496 2.09817 5.03387 2.06161 5.06697 2.01559ZM2.98646 3.54188C2.59523 3.54188 2.27808 3.85903 2.27808 4.25025V10.6256C2.27808 11.0169 2.59523 11.334 2.98646 11.334H14.3205C14.7117 11.334 15.0288 11.0169 15.0288 10.6256V4.25025C15.0288 3.85903 14.7117 3.54188 14.3205 3.54188H12.1953C11.7247 3.54188 11.4074 3.28432 11.0898 2.84289C11.0168 2.74133 10.9444 2.63042 10.8573 2.4893C10.8133 2.41803 10.6658 2.17406 10.6453 2.14042C10.3249 1.61632 10.1316 1.41675 10.0702 1.41675H7.23671C7.17527 1.41675 6.98205 1.61632 6.66165 2.14042C6.64108 2.17406 6.4936 2.41803 6.44961 2.4893C6.36252 2.63042 6.29014 2.74133 6.21708 2.84289C5.89956 3.28432 5.58219 3.54188 5.11158 3.54188H2.98646ZM13.6121 5.66701C14.0033 5.66701 14.3205 5.34985 14.3205 4.95863C14.3205 4.5674 14.0033 4.25025 13.6121 4.25025C13.2209 4.25025 12.9037 4.5674 12.9037 4.95863C12.9037 5.34985 13.2209 5.66701 13.6121 5.66701ZM8.65346 10.6256C6.69734 10.6256 5.11158 9.03988 5.11158 7.08376C5.11158 5.12763 6.69734 3.54188 8.65346 3.54188C10.6096 3.54188 12.1953 5.12763 12.1953 7.08376C12.1953 9.03988 10.6096 10.6256 8.65346 10.6256ZM8.65346 9.20888C9.82714 9.20888 10.7786 8.25743 10.7786 7.08376C10.7786 5.91008 9.82714 4.95863 8.65346 4.95863C7.47979 4.95863 6.52833 5.91008 6.52833 7.08376C6.52833 8.25743 7.47979 9.20888 8.65346 9.20888Z" fill="white"/>
</svg>
