<svg width="17" height="19" viewBox="0 0 17 19" fill="none" xmlns="http://www.w3.org/2000/svg">
<path fill-rule="evenodd" clip-rule="evenodd" d="M4.75963 13.3H12.7603C14.9697 13.3 16.7607 15.4266 16.7607 18.05C16.7607 18.5747 16.4025 19 15.9606 19C15.5503 19 15.2121 18.6333 15.1659 18.1608L15.1565 17.8825C15.0862 16.4419 14.1146 15.2883 12.9014 15.2048L12.7603 15.2H4.75963C3.43403 15.2 2.35942 16.476 2.35942 18.05C2.35942 18.5747 2.00121 19 1.55935 19C1.11748 19 0.759277 18.5747 0.759277 18.05C0.759277 15.4957 2.45727 13.4123 4.5861 13.3044L4.75963 13.3ZM8.75998 0C9.08498 0 9.40628 0.0384868 9.72035 0.11428C10.1534 0.218779 10.433 0.7203 10.345 1.23446C10.257 1.74862 9.83466 2.08071 9.40164 1.97621C9.19233 1.9257 8.97779 1.9 8.75998 1.9C6.99251 1.9 5.5597 3.60132 5.5597 5.7C5.5597 7.79868 6.99251 9.5 8.75998 9.5C9.77991 9.5 10.7187 8.93077 11.3203 7.98036C11.5857 7.56095 12.0873 7.47649 12.4405 7.79172C12.7937 8.10695 12.8649 8.7025 12.5994 9.12192C11.6987 10.5449 10.2884 11.4 8.75998 11.4C6.10878 11.4 3.95956 8.84802 3.95956 5.7C3.95956 2.55198 6.10878 0 8.75998 0ZM14.3605 0C14.8023 0 15.1605 0.425329 15.1605 0.95V1.9H15.9606C16.4025 1.9 16.7607 2.32533 16.7607 2.85C16.7607 3.37467 16.4025 3.8 15.9606 3.8H15.1605V4.75C15.1605 5.27467 14.8023 5.7 14.3605 5.7C13.9186 5.7 13.5604 5.27467 13.5604 4.75V3.8H12.7603C12.3185 3.8 11.9603 3.37467 11.9603 2.85C11.9603 2.32533 12.3185 1.9 12.7603 1.9H13.5604V0.95C13.5604 0.425329 13.9186 0 14.3605 0Z" fill="black"/>
</svg>
