<svg width="21" height="18" viewBox="0 0 21 18" fill="none" xmlns="http://www.w3.org/2000/svg">
<path d="M19.7919 5.11538C20.8662 7.1283 21.0683 9.4275 20.3591 11.5666C19.6499 13.7057 18.0799 15.5321 15.954 16.6911C13.8281 17.8502 11.2979 18.2593 8.85464 17.8389C6.41141 17.4185 4.22947 16.1987 2.73243 14.4163C1.2354 12.6339 0.530079 10.416 0.753416 8.19334C0.976752 5.97064 2.11281 3.90169 3.94102 2.38815C5.76924 0.874619 8.15916 0.0245013 10.6468 0.00284543C13.1345 -0.0188105 15.5423 0.789541 17.4029 2.27096L19.762 0.154703C19.8726 0.0555995 20.0225 -4.59506e-05 20.1789 2.84712e-08C20.3352 4.60075e-05 20.4851 0.0557797 20.5956 0.154948C20.7062 0.254117 20.7683 0.388603 20.7683 0.528841C20.7684 0.669078 20.7063 0.803588 20.5958 0.902798L14.4969 6.37399L14.4968 6.37412L14.4967 6.37421L11.1611 9.36646C11.0505 9.46556 10.9005 9.52121 10.7442 9.52116C10.5879 9.52112 10.438 9.46538 10.3274 9.36621C10.2169 9.26705 10.1548 9.13256 10.1548 8.99232C10.1547 8.85209 10.2168 8.71758 10.3273 8.61837L13.2157 6.02719C12.4632 5.52257 11.5412 5.26341 10.6022 5.29253C9.66325 5.32165 8.76344 5.63731 8.05154 6.18734C7.33963 6.73738 6.85823 7.48885 6.68692 8.31757C6.51561 9.14629 6.66463 10.0026 7.10935 10.7451C7.55408 11.4875 8.26789 12.0716 9.1328 12.4008C9.99771 12.7301 10.962 12.7847 11.8662 12.5557C12.7704 12.3267 13.5604 11.8278 14.1057 11.1414C14.651 10.455 14.9189 9.62229 14.8652 8.78082C14.8607 8.71142 14.8715 8.6419 14.8969 8.57624C14.9224 8.51059 14.9621 8.45008 15.0136 8.39818C15.0652 8.34629 15.1277 8.30402 15.1975 8.27379C15.2673 8.24357 15.343 8.22598 15.4204 8.22204C15.4978 8.21809 15.5752 8.22787 15.6484 8.25081C15.7215 8.27375 15.7889 8.3094 15.8467 8.35572C15.9045 8.40205 15.9516 8.45814 15.9852 8.52078C16.0188 8.58343 16.0383 8.6514 16.0426 8.72081C16.1122 9.8095 15.7631 10.8866 15.0536 11.7721C14.3442 12.6576 13.3174 13.2978 12.145 13.5857C10.9725 13.8736 9.72541 13.7917 8.61217 13.3538C7.49892 12.9158 6.587 12.1483 6.02885 11.1796C5.47069 10.2109 5.30014 9.09961 5.54569 8.03162C5.79125 6.96362 6.43803 6.0036 7.37792 5.31206C8.3178 4.62051 9.49383 4.23934 10.7094 4.23228C11.925 4.22521 13.1064 4.59268 14.0562 5.27324L16.5664 3.02142C14.918 1.73199 12.7949 1.03706 10.6082 1.07117C8.42143 1.10528 6.32658 1.86601 4.72916 3.20608C3.13174 4.54615 2.14537 6.37025 1.96103 8.32523C1.77668 10.2802 2.40745 12.227 3.73124 13.7888C5.05503 15.3505 6.97767 16.4161 9.12694 16.7793C11.2762 17.1424 13.4992 16.7773 15.3657 15.7546C17.2321 14.7319 18.6091 13.1243 19.2302 11.2431C19.8513 9.36193 19.6723 7.34092 18.7278 5.57135C18.6944 5.50867 18.6751 5.4407 18.671 5.37133C18.6669 5.30197 18.6781 5.23255 18.7039 5.16706C18.7297 5.10157 18.7697 5.04127 18.8214 4.98963C18.8732 4.93798 18.9358 4.89599 19.0057 4.86605C19.0756 4.83611 19.1513 4.81881 19.2287 4.81513C19.306 4.81146 19.3834 4.82149 19.4564 4.84464C19.5294 4.86779 19.5966 4.90362 19.6542 4.95007C19.7118 4.99653 19.7586 5.0527 19.7919 5.11538Z" fill="black"/>
</svg>
