<svg width="32" height="32" viewBox="0 0 32 32" fill="none" xmlns="http://www.w3.org/2000/svg">
<path d="M4.8761 19.0941L14.4765 17.1357C13.9415 17.9624 13.5581 18.8877 13.3543 19.884L12.6445 20.1544L4.83331 23.4752L4.8761 19.0941ZM4.93866 12.6888L4.98145 8.30762L17.8894 14.1047C17.2763 14.4038 16.6904 14.7724 16.1731 15.2111L4.93866 12.6888Z" fill="white"/>
<path d="M6.34963 10.4429L11.4576 12.739L6.33852 11.5798L6.34963 10.4429ZM11.3947 19.1721L6.24293 21.368L6.25417 20.2173L11.3947 19.1721ZM3.61816 6.17334L3.54369 13.7987L13.2285 15.9732L3.50307 17.958L3.4286 25.5834L13.1752 21.4357L13.1744 21.5189C13.1295 26.108 16.8227 29.8739 21.4118 29.9188C26.001 29.9636 29.7669 26.2705 29.8117 21.6814C29.8566 17.0923 26.1634 13.3264 21.5743 13.2815C20.9781 13.2757 20.3951 13.3394 19.8255 13.4586L3.61816 6.17334ZM21.4253 28.5323C17.5988 28.495 14.5234 25.359 14.5608 21.5324C14.5982 17.7059 17.7342 14.6306 21.5608 14.668C25.3874 14.7053 28.4627 17.8413 28.4253 21.6678C28.3879 25.4944 25.2519 28.5697 21.4253 28.5323Z" fill="#CDCDCD"/>
<path d="M23.4733 18.6801L21.4993 20.6159L19.5635 18.6419L18.5695 19.6167L20.5053 21.5907L18.5313 23.5264L19.5061 24.5204L21.4801 22.5846L23.4159 24.5586L24.4098 23.5839L22.474 21.6099L24.448 19.6741L23.4733 18.6801Z" fill="#CDCDCD"/>
</svg>
