<svg width="27" height="27" viewBox="0 0 27 27" fill="none" xmlns="http://www.w3.org/2000/svg">
<path d="M3.44371 16.0276L12.4451 14.1915C11.9435 14.9666 11.584 15.8341 11.3929 16.7683L10.7273 17.0218L3.40359 20.1354L3.44371 16.0276ZM3.50236 10.0219L3.54248 5.91412L15.645 11.3496C15.0702 11.63 14.5208 11.9756 14.0358 12.3869L3.50236 10.0219Z" fill="white"/>
<path d="M4.82299 7.91574L9.61219 10.0686L4.81258 8.98169L4.82299 7.91574ZM9.55329 16.1003L4.72295 18.1592L4.73349 17.0803L9.55329 16.1003ZM2.26196 3.91254L2.19214 11.0622L11.2727 13.101L2.15405 14.962L2.08423 22.1117L11.2226 18.2227L11.2219 18.3007C11.1799 22.6035 14.6425 26.1345 18.9453 26.1765C23.2481 26.2185 26.7791 22.7559 26.8211 18.4531C26.8632 14.1503 23.4005 10.6193 19.0977 10.5773C18.5387 10.5718 17.9921 10.6315 17.458 10.7433L2.26196 3.91254ZM18.958 24.8766C15.3702 24.8415 12.4868 21.9012 12.5218 18.3134C12.5569 14.7256 15.4972 11.8422 19.085 11.8772C22.6728 11.9122 25.5562 14.8525 25.5212 18.4404C25.4862 22.0282 22.5459 24.9116 18.958 24.8766Z" fill="#E99D2B"/>
<path d="M20.881 15.6389L19.0302 17.4539L17.2152 15.6031L16.2832 16.5171L18.0982 18.3679L16.2474 20.1829L17.1614 21.1149L19.0122 19.2999L20.8272 21.1507L21.7592 20.2367L19.9441 18.3859L21.795 16.5709L20.881 15.6389Z" fill="#E99D2B"/>
</svg>
