<svg width="32" height="32" viewBox="0 0 32 32" fill="none" xmlns="http://www.w3.org/2000/svg">
<path d="M25.2857 7.25001H19.9286L19.5089 6.51954C19.42 6.36337 19.2831 6.23201 19.1135 6.14022C18.944 6.04844 18.7485 5.99988 18.5491 6.00001H13.4464C13.2475 5.99934 13.0524 6.04772 12.8834 6.1396C12.7144 6.23149 12.5785 6.36316 12.4911 6.51954L12.0714 7.25001H6.71429C6.52485 7.25001 6.34316 7.31585 6.20921 7.43306C6.07525 7.55027 6 7.70925 6 7.87501V9.12501C6 9.29077 6.07525 9.44974 6.20921 9.56695C6.34316 9.68416 6.52485 9.75001 6.71429 9.75001H25.2857C25.4752 9.75001 25.6568 9.68416 25.7908 9.56695C25.9247 9.44974 26 9.29077 26 9.12501V7.87501C26 7.70925 25.9247 7.55027 25.7908 7.43306C25.6568 7.31585 25.4752 7.25001 25.2857 7.25001ZM8.375 24.2422C8.40907 24.7182 8.64918 25.165 9.04645 25.4915C9.44373 25.8181 9.9683 25.9999 10.5134 26H21.4866C22.0317 25.9999 22.5563 25.8181 22.9535 25.4915C23.3508 25.165 23.5909 24.7182 23.625 24.2422L24.5714 11H7.42857L8.375 24.2422Z" fill="#CBCBCB"/>
</svg>
