<svg width="17" height="19" viewBox="0 0 17 19" fill="none" xmlns="http://www.w3.org/2000/svg">
<path d="M16.3929 1.18751H11.8393L11.4826 0.493561C11.407 0.345203 11.2906 0.220407 11.1465 0.133214C11.0024 0.04602 10.8362 -0.000112366 10.6667 6.50628e-06H6.32946C6.16037 -0.000629197 5.99451 0.0453311 5.85089 0.132622C5.70726 0.219913 5.59169 0.345003 5.51741 0.493561L5.16071 1.18751H0.607143C0.446119 1.18751 0.291689 1.25006 0.177828 1.36141C0.0639667 1.47276 0 1.62378 0 1.78126L0 2.96876C0 3.12623 0.0639667 3.27725 0.177828 3.3886C0.291689 3.49995 0.446119 3.56251 0.607143 3.56251H16.3929C16.5539 3.56251 16.7083 3.49995 16.8222 3.3886C16.936 3.27725 17 3.12623 17 2.96876V1.78126C17 1.62378 16.936 1.47276 16.8222 1.36141C16.7083 1.25006 16.5539 1.18751 16.3929 1.18751ZM2.01875 17.3301C2.04771 17.7823 2.2518 18.2067 2.58949 18.517C2.92717 18.8272 3.37306 18.9999 3.83638 19H13.1636C13.6269 18.9999 14.0728 18.8272 14.4105 18.517C14.7482 18.2067 14.9523 17.7823 14.9812 17.3301L15.7857 4.75H1.21429L2.01875 17.3301Z" fill="#D84315"/>
</svg>
