<svg width="19" height="17" viewBox="0 0 19 17" fill="none" xmlns="http://www.w3.org/2000/svg">
<path d="M13.2802 2.75972L16.2556 5.75523C16.3809 5.88142 16.3809 6.08732 16.2556 6.21352L9.05139 13.4665L5.99028 13.8086C5.58125 13.855 5.2349 13.5063 5.28108 13.0945L5.62083 10.0127L12.825 2.75972C12.9503 2.63352 13.1549 2.63352 13.2802 2.75972ZM18.624 1.99922L17.0142 0.37859C16.5128 -0.126197 15.6981 -0.126197 15.1934 0.37859L14.0257 1.55421C13.9003 1.68041 13.9003 1.88631 14.0257 2.0125L17.001 5.00801C17.1264 5.13421 17.3309 5.13421 17.4563 5.00801L18.624 3.83239C19.1253 3.32428 19.1253 2.504 18.624 1.99922ZM12.6667 11.4938V14.8746H2.11111V4.24751H9.69132C9.79688 4.24751 9.89583 4.20434 9.9717 4.13128L11.2911 2.80289C11.5418 2.5505 11.3637 2.12209 11.0108 2.12209H1.58333C0.709201 2.12209 0 2.8361 0 3.71616V15.4059C0 16.286 0.709201 17 1.58333 17H13.1944C14.0686 17 14.7778 16.286 14.7778 15.4059V10.1655C14.7778 9.81012 14.3523 9.63411 14.1016 9.88318L12.7821 11.2116C12.7095 11.2879 12.6667 11.3876 12.6667 11.4938Z" fill="#0054A4"/>
</svg>
