<svg width="99" height="99" viewBox="0 0 99 99" fill="none" xmlns="http://www.w3.org/2000/svg">
<path fill-rule="evenodd" clip-rule="evenodd" d="M44.5587 0.0452843C35.3413 1.03619 26.8735 4.38164 19.3414 10.008C16.8834 11.8441 11.8213 16.9048 9.98472 19.3623C4.9413 26.1103 1.87847 33.2226 0.423402 41.5644C0.0548387 43.6779 0 44.7056 0 49.513C0 54.3203 0.0548387 55.348 0.423402 57.4615C1.87847 65.8034 4.9413 72.9156 9.98472 79.6637C11.8213 82.1211 16.8834 87.1818 19.3414 89.0179C26.0912 94.06 33.2053 97.122 41.5494 98.5767C43.6635 98.9452 44.6914 99 49.5 99C54.3086 99 55.3365 98.9452 57.4506 98.5767C65.7947 97.122 72.9088 94.06 79.6586 89.0179C82.1166 87.1818 87.1787 82.1211 89.0153 79.6637C94.0587 72.9156 97.1215 65.8034 98.5766 57.4615C98.9452 55.348 99 54.3203 99 49.513C99 44.7056 98.9452 43.6779 98.5766 41.5644C97.1215 33.2226 94.0587 26.1103 89.0153 19.3623C87.1787 16.9048 82.1166 11.8441 79.6586 10.008C72.9353 4.98587 65.7501 1.88626 57.5524 0.472062C55.6881 0.150477 54.2188 0.0582639 50.2751 0.0156443C47.5574 -0.0138021 44.985 -0.000434974 44.5587 0.0452843ZM55.5071 5.46883C65.1967 6.83866 73.9994 11.2254 80.8984 18.1228C85.7436 22.9665 89.5391 29.0654 91.6324 35.371C93.3094 40.4226 93.9149 44.1743 93.9149 49.513C93.9149 56.5989 92.4924 62.7636 89.4181 69.001C85.0126 77.9393 77.9338 85.0163 68.9931 89.4206C62.7541 92.4941 56.5878 93.9162 49.5 93.9162C42.4122 93.9162 36.2459 92.4941 30.0069 89.4206C16.6076 82.8198 7.69874 70.5062 5.40849 55.4216C4.96901 52.5271 4.96901 46.4988 5.40849 43.6043C6.93138 33.5736 11.1821 25.0406 18.1016 18.1228C27.9707 8.25635 41.8976 3.54494 55.5071 5.46883ZM31.754 30.893C30.9777 31.3665 30.6271 32.2342 30.755 33.3669C30.8544 34.2499 30.9571 34.3634 38.3367 41.7428L45.8177 49.2235L38.3311 56.7081L30.8448 64.1925L30.7527 65.1509C30.5865 66.8799 31.529 67.9169 33.267 67.9169C33.7281 67.9169 34.3211 67.7743 34.5844 67.6002C34.848 67.426 38.3117 64.0484 42.2818 60.0943L49.5 52.9051L56.7182 60.0943C60.6883 64.0484 64.152 67.426 64.4156 67.6002C64.6789 67.7743 65.2719 67.9169 65.733 67.9169C67.4706 67.9169 68.4135 66.8799 68.2475 65.1517L68.1554 64.1939L60.6689 56.7075L53.1823 49.2212L60.6689 41.7366L68.1552 34.2522L68.2473 33.2938C68.4136 31.5648 67.471 30.5278 65.733 30.5278C65.2719 30.5278 64.6789 30.6704 64.4156 30.8446C64.152 31.0187 60.6883 34.3963 56.7182 38.3505L49.5 45.5396L42.2818 38.3505C38.3117 34.3963 34.848 31.0187 34.5844 30.8446C33.9349 30.4151 32.4977 30.4399 31.754 30.893Z" fill="#D10A0A"/>
</svg>
