<svg width="32" height="32" viewBox="0 0 32 32" fill="none" xmlns="http://www.w3.org/2000/svg">
<path d="M20.775 7.89607L24.5333 12.125C24.6917 12.3032 24.6917 12.5939 24.5333 12.772L15.4333 23.0115L11.5667 23.4944C11.05 23.5601 10.6125 23.0678 10.6708 22.4864L11.1 18.1356L20.2 7.89607C20.3583 7.71791 20.6167 7.71791 20.775 7.89607ZM27.525 6.82243L25.4917 4.53448C24.8583 3.82184 23.8292 3.82184 23.1917 4.53448L21.7167 6.19418C21.5583 6.37234 21.5583 6.66302 21.7167 6.84118L25.475 11.0701C25.6333 11.2483 25.8917 11.2483 26.05 11.0701L27.525 9.41043C28.1583 8.6931 28.1583 7.53507 27.525 6.82243ZM20 20.2266V24.9994H6.66667V9.99648H16.2417C16.375 9.99648 16.5 9.93553 16.5958 9.83239L18.2625 7.95702C18.5792 7.6007 18.3542 6.9959 17.9083 6.9959H6C4.89583 6.9959 4 8.00391 4 9.24634V25.7496C4 26.992 4.89583 28 6 28H20.6667C21.7708 28 22.6667 26.992 22.6667 25.7496V18.3512C22.6667 17.8496 22.1292 17.6011 21.8125 17.9527L20.1458 19.8281C20.0542 19.9359 20 20.0766 20 20.2266Z" fill="#CBCBCB"/>
</svg>
