<svg width="35" height="34" viewBox="0 0 35 34" fill="none" xmlns="http://www.w3.org/2000/svg">
<path d="M27.4219 26.0313C27.5682 25.5171 28.1037 25.2188 28.618 25.3651C29.1322 25.5115 29.4304 26.0469 29.2841 26.5612C28.8136 28.2147 27.4993 29.5107 25.801 29.9353L10.0651 33.8691C7.40511 34.4838 4.79581 32.8757 4.19164 30.2577L0.124966 12.6354C-0.468424 10.064 1.10724 7.49122 3.66739 6.85119L7.32479 5.93684C7.84347 5.80717 8.36907 6.12252 8.49874 6.64121C8.62841 7.15989 8.31305 7.68549 7.79437 7.81516L4.13697 8.72951C2.60088 9.11353 1.65548 10.6572 2.01151 12.2L6.07819 29.8223C6.44066 31.393 8.0061 32.3578 9.61239 31.9867L25.3314 28.057C26.3511 27.8021 27.1392 27.025 27.4219 26.0313ZM32.1594 19.9284V4.84033C32.1594 3.23638 30.8591 1.93613 29.2552 1.93613H11.83C10.2261 1.93613 8.9258 3.23638 8.9258 4.84033V16.0561L13.0816 11.9003C13.4597 11.5223 14.0726 11.5223 14.4507 11.9003L21.634 19.0837L26.7821 15.6516C27.166 15.3957 27.6773 15.4463 28.0036 15.7726L32.1594 19.9284ZM32.1352 22.6423L27.1957 17.7028L22.0476 21.1349C21.6637 21.3908 21.1524 21.3402 20.8261 21.0139L13.7661 13.9539L8.9258 18.7942V22.2655C8.9258 23.8695 10.2261 25.1697 11.83 25.1697H29.2552C30.7314 25.1697 31.9504 24.0682 32.1352 22.6423ZM11.83 0H29.2552C31.9284 0 34.0955 2.16709 34.0955 4.84033V22.2655C34.0955 24.9387 31.9284 27.1058 29.2552 27.1058H11.83C9.15676 27.1058 6.98967 24.9387 6.98967 22.2655V4.84033C6.98967 2.16709 9.15676 0 11.83 0ZM24.4149 3.87226H28.2871C29.3564 3.87226 30.2232 4.7391 30.2232 5.80839V9.68066C30.2232 10.75 29.3564 11.6168 28.2871 11.6168H24.4149C23.3456 11.6168 22.4787 10.75 22.4787 9.68066V5.80839C22.4787 4.7391 23.3456 3.87226 24.4149 3.87226ZM24.4149 5.80839V9.68066H28.2871V5.80839H24.4149Z" fill="black"/>
</svg>
