<svg width="22" height="22" viewBox="0 0 22 22" fill="none" xmlns="http://www.w3.org/2000/svg">
<mask id="mask0_6932_3180" style="mask-type:alpha" maskUnits="userSpaceOnUse" x="0" y="0" width="22" height="22">
<rect width="22" height="22" fill="#D9D9D9"/>
</mask>
<g mask="url(#mask0_6932_3180)">
<path d="M20.0062 19.984L13.9562 13.934L11.3437 16.5465L6.16452 11.3673L7.44785 10.0382L11.3437 13.934L12.627 12.6507L3.13952 3.16315L4.42285 1.83398L21.2895 18.7007L20.0062 19.984ZM6.16452 16.5465L0.985352 11.3673L2.26868 10.084L7.44785 15.2632L6.16452 16.5465ZM16.5229 11.3673L15.2395 10.084L19.7312 5.59232L21.0604 6.82982L16.5229 11.3673ZM13.9104 8.75482L12.627 7.47148L14.5979 5.50065L15.8812 6.78398L13.9104 8.75482Z" fill="#C5020E"/>
</g>
</svg>
