<svg width="58" height="58" viewBox="0 0 58 58" fill="none" xmlns="http://www.w3.org/2000/svg">
<rect width="58" height="58" rx="29" fill="#0054A4"/>
<path d="M47.0849 22.4583H42.5245L41.257 19.3167C39.9545 16.0866 36.8459 14 33.3367 14H23.6628C20.1543 14 17.045 16.0866 15.7417 19.3167L14.4742 22.4583H9.91455C9.31965 22.4583 8.88318 23.0127 9.02791 23.5843L9.48494 25.3968C9.58625 25.8001 9.95187 26.0833 10.3716 26.0833H11.9004C10.8774 26.9692 10.2185 28.2568 10.2185 29.7083V33.3333C10.2185 34.5507 10.6877 35.6496 11.4372 36.4999V40.5833C11.4372 41.9178 12.5288 43 13.8747 43H16.3122C17.6582 43 18.7497 41.9178 18.7497 40.5833V38.1667H38.2498V40.5833C38.2498 41.9178 39.3413 43 40.6873 43H43.1248C44.4707 43 45.5623 41.9178 45.5623 40.5833V36.4999C46.3118 35.6503 46.781 34.5515 46.781 33.3333V29.7083C46.781 28.2568 46.1221 26.9692 45.0999 26.0833H46.6287C47.0484 26.0833 47.414 25.8001 47.5153 25.3968L47.9724 23.5843C48.1163 23.0127 47.6799 22.4583 47.0849 22.4583ZM20.2678 21.1118C20.8231 19.7358 22.1676 18.8333 23.6628 18.8333H33.3367C34.8319 18.8333 36.1764 19.7358 36.7317 21.1118L38.2498 24.875H18.7497L20.2678 21.1118ZM16.3122 33.3182C14.8497 33.3182 13.8747 32.3546 13.8747 30.9091C13.8747 29.4636 14.8497 28.5 16.3122 28.5C17.7747 28.5 19.9685 30.6682 19.9685 32.1137C19.9685 33.5591 17.7747 33.3182 16.3122 33.3182ZM40.6873 33.3182C39.2248 33.3182 37.031 33.5591 37.031 32.1137C37.031 30.6682 39.2248 28.5 40.6873 28.5C42.1498 28.5 43.1248 29.4636 43.1248 30.9091C43.1248 32.3546 42.1498 33.3182 40.6873 33.3182Z" fill="white"/>
</svg>
