<svg width="25" height="25" viewBox="0 0 25 25" fill="none" xmlns="http://www.w3.org/2000/svg">
<path d="M0 10.7143H10.7143V0H0V10.7143ZM3.57143 3.57143H7.14286V7.14286H3.57143V3.57143ZM14.2857 0V10.7143H25V0H14.2857ZM21.4286 7.14286H17.8571V3.57143H21.4286V7.14286ZM0 25H10.7143V14.2857H0V25ZM3.57143 17.8571H7.14286V21.4286H3.57143V17.8571ZM23.2143 14.2857H25V21.4286H19.6429V19.6429H17.8571V25H14.2857V14.2857H19.6429V16.0714H23.2143V14.2857ZM23.2143 23.2143H25V25H23.2143V23.2143ZM19.6429 23.2143H21.4286V25H19.6429V23.2143Z" fill="white"/>
</svg>
