<svg width="23" height="30" viewBox="0 0 23 30" fill="none" xmlns="http://www.w3.org/2000/svg">
<path d="M20.125 3.75H15.3333C15.3333 1.68164 13.6143 0 11.5 0C9.38568 0 7.66667 1.68164 7.66667 3.75H2.875C1.28776 3.75 0 5.00977 0 6.5625V27.1875C0 28.7402 1.28776 30 2.875 30H20.125C21.7122 30 23 28.7402 23 27.1875V6.5625C23 5.00977 21.7122 3.75 20.125 3.75ZM5.75 24.8438C4.95339 24.8438 4.3125 24.2168 4.3125 23.4375C4.3125 22.6582 4.95339 22.0312 5.75 22.0312C6.54661 22.0312 7.1875 22.6582 7.1875 23.4375C7.1875 24.2168 6.54661 24.8438 5.75 24.8438ZM5.75 19.2188C4.95339 19.2188 4.3125 18.5918 4.3125 17.8125C4.3125 17.0332 4.95339 16.4062 5.75 16.4062C6.54661 16.4062 7.1875 17.0332 7.1875 17.8125C7.1875 18.5918 6.54661 19.2188 5.75 19.2188ZM5.75 13.5938C4.95339 13.5938 4.3125 12.9668 4.3125 12.1875C4.3125 11.4082 4.95339 10.7812 5.75 10.7812C6.54661 10.7812 7.1875 11.4082 7.1875 12.1875C7.1875 12.9668 6.54661 13.5938 5.75 13.5938ZM11.5 2.34375C12.2966 2.34375 12.9375 2.9707 12.9375 3.75C12.9375 4.5293 12.2966 5.15625 11.5 5.15625C10.7034 5.15625 10.0625 4.5293 10.0625 3.75C10.0625 2.9707 10.7034 2.34375 11.5 2.34375ZM19.1667 23.9062C19.1667 24.1641 18.951 24.375 18.6875 24.375H10.0625C9.79896 24.375 9.58333 24.1641 9.58333 23.9062V22.9688C9.58333 22.7109 9.79896 22.5 10.0625 22.5H18.6875C18.951 22.5 19.1667 22.7109 19.1667 22.9688V23.9062ZM19.1667 18.2812C19.1667 18.5391 18.951 18.75 18.6875 18.75H10.0625C9.79896 18.75 9.58333 18.5391 9.58333 18.2812V17.3438C9.58333 17.0859 9.79896 16.875 10.0625 16.875H18.6875C18.951 16.875 19.1667 17.0859 19.1667 17.3438V18.2812ZM19.1667 12.6562C19.1667 12.9141 18.951 13.125 18.6875 13.125H10.0625C9.79896 13.125 9.58333 12.9141 9.58333 12.6562V11.7188C9.58333 11.4609 9.79896 11.25 10.0625 11.25H18.6875C18.951 11.25 19.1667 11.4609 19.1667 11.7188V12.6562Z" fill="#999798"/>
</svg>
