<svg width="10" height="10" viewBox="0 0 10 10" fill="none" xmlns="http://www.w3.org/2000/svg">
<path d="M3.59781 2.60972L4.66021 1.5576V5.94449C4.66021 6.06581 4.70909 6.18216 4.79609 6.26795C4.88309 6.35374 5.00109 6.40193 5.12413 6.40193C5.24718 6.40193 5.36518 6.35374 5.45218 6.26795C5.53918 6.18216 5.58806 6.06581 5.58806 5.94449V1.5576L6.65045 2.60972C6.69358 2.6526 6.74489 2.68663 6.80143 2.70985C6.85796 2.73308 6.9186 2.74503 6.97984 2.74503C7.04109 2.74503 7.10172 2.73308 7.15826 2.70985C7.21479 2.68663 7.2661 2.6526 7.30923 2.60972C7.35271 2.5672 7.38723 2.5166 7.41078 2.46086C7.43433 2.40512 7.44646 2.34533 7.44646 2.28494C7.44646 2.22455 7.43433 2.16476 7.41078 2.10902C7.38723 2.05327 7.35271 2.00268 7.30923 1.96015L5.45352 0.130378C5.4094 0.0887317 5.35737 0.0560862 5.30043 0.0343145C5.18748 -0.0114382 5.06079 -0.0114382 4.94784 0.0343145C4.89089 0.0560862 4.83887 0.0887317 4.79475 0.130378L2.93904 1.96015C2.89578 2.0028 2.86147 2.05344 2.83806 2.10917C2.81465 2.16489 2.8026 2.22462 2.8026 2.28494C2.8026 2.34526 2.81465 2.40498 2.83806 2.46071C2.86147 2.51644 2.89578 2.56707 2.93904 2.60972C2.98229 2.65237 3.03365 2.68621 3.09016 2.70929C3.14668 2.73237 3.20725 2.74425 3.26843 2.74425C3.3296 2.74425 3.39017 2.73237 3.44669 2.70929C3.50321 2.68621 3.55456 2.65237 3.59781 2.60972ZM9.29948 4.57216C9.17644 4.57216 9.05844 4.62035 8.97143 4.70614C8.88443 4.79193 8.83555 4.90828 8.83555 5.0296V7.77426C8.83555 7.89558 8.78667 8.01194 8.69967 8.09772C8.61267 8.18351 8.49467 8.23171 8.37162 8.23171H1.87664C1.7536 8.23171 1.6356 8.18351 1.5486 8.09772C1.4616 8.01194 1.41272 7.89558 1.41272 7.77426V5.0296C1.41272 4.90828 1.36384 4.79193 1.27684 4.70614C1.18983 4.62035 1.07183 4.57216 0.94879 4.57216C0.825749 4.57216 0.707748 4.62035 0.620744 4.70614C0.533741 4.79193 0.484863 4.90828 0.484863 5.0296V7.77426C0.484863 8.13823 0.631497 8.48728 0.892507 8.74465C1.15352 9.00201 1.50752 9.14659 1.87664 9.14659H8.37162C8.74075 9.14659 9.09475 9.00201 9.35576 8.74465C9.61677 8.48728 9.76341 8.13823 9.76341 7.77426V5.0296C9.76341 4.90828 9.71453 4.79193 9.62753 4.70614C9.54052 4.62035 9.42252 4.57216 9.29948 4.57216Z" fill="black"/>
</svg>
