<svg width="15" height="15" viewBox="0 0 15 15" fill="none" xmlns="http://www.w3.org/2000/svg">
<path d="M14.5293 3.27927L11.7207 0.470725C11.4193 0.169327 11.0105 2.22883e-06 10.5843 0H1.60714C0.719531 0 0 0.719531 0 1.60714V13.3929C0 14.2805 0.719531 15 1.60714 15H13.3929C14.2805 15 15 14.2805 15 13.3929V4.41569C15 3.98945 14.8307 3.58067 14.5293 3.27927ZM7.5 12.8571C6.31654 12.8571 5.35714 11.8977 5.35714 10.7143C5.35714 9.53083 6.31654 8.57143 7.5 8.57143C8.68346 8.57143 9.64286 9.53083 9.64286 10.7143C9.64286 11.8977 8.68346 12.8571 7.5 12.8571ZM10.7143 2.66116V6.02679C10.7143 6.24867 10.5344 6.42857 10.3125 6.42857H2.54464C2.32276 6.42857 2.14286 6.24867 2.14286 6.02679V2.54464C2.14286 2.32276 2.32276 2.14286 2.54464 2.14286H10.196C10.3026 2.14286 10.4047 2.18518 10.4801 2.26055L10.5966 2.37706C10.6339 2.41437 10.6635 2.45866 10.6837 2.5074C10.7039 2.55615 10.7143 2.6084 10.7143 2.66116Z" fill="white"/>
</svg>
