<svg width="11" height="12" viewBox="0 0 11 12" fill="none" xmlns="http://www.w3.org/2000/svg">
<path d="M7.85714 10.5V11.4375C7.85714 11.7482 7.59331 12 7.26786 12H0.589286C0.263828 12 0 11.7482 0 11.4375V2.8125C0 2.50184 0.263828 2.25 0.589286 2.25H2.35714V9.1875C2.35714 9.91123 2.97395 10.5 3.73214 10.5H7.85714ZM7.85714 2.4375V0H3.73214C3.40669 0 3.14286 0.251836 3.14286 0.5625V9.1875C3.14286 9.49816 3.40669 9.75 3.73214 9.75H10.4107C10.7362 9.75 11 9.49816 11 9.1875V3H8.44643C8.12232 3 7.85714 2.74687 7.85714 2.4375ZM10.8274 1.71026L9.2083 0.164742C9.09779 0.05926 8.94791 7.79991e-07 8.79163 0L8.64286 0V2.25H11V2.10799C11 1.95881 10.9379 1.81575 10.8274 1.71026V1.71026Z" fill="#999798"/>
</svg>
